<?xml version="1.0" encoding="UTF-8" standalone="no"?>
<!DOCTYPE svg PUBLIC "-//W3C//DTD SVG 1.1//EN" "http://www.w3.org/Graphics/SVG/1.1/DTD/svg11.dtd">
<svg width="100%" height="100%" viewBox="0 0 1600 600" version="1.1" xmlns="http://www.w3.org/2000/svg" xmlns:xlink="http://www.w3.org/1999/xlink" xml:space="preserve" xmlns:serif="http://www.serif.com/" style="fill-rule:evenodd;clip-rule:evenodd;stroke-linejoin:round;stroke-miterlimit:2;">
    <g transform="matrix(1,0,0,1,-3800,-2120)">
        <g transform="matrix(0.66901,0,0,0.74882,2394.33,2120)">
            <rect id="Artboard2" x="2101.12" y="0" width="2391.59" height="801.261" style="fill:none;"/>
            <g id="Artboard21" serif:id="Artboard2">
                <g transform="matrix(-1.85509,9.14802e-17,2.45523e-16,1.65738,7225.23,-814.242)">
                    <path d="M2349.82,713.81L2344.28,713.81C2343.86,713.81 2343.45,713.978 2343.16,714.277C2342.86,714.575 2342.69,714.981 2342.69,715.403C2342.69,727.403 2342.69,799.826 2342.69,811.825C2342.69,812.248 2342.86,812.653 2343.16,812.952C2343.45,813.251 2343.86,813.418 2344.28,813.418L2358.36,813.418C2358.78,813.418 2359.19,813.251 2359.49,812.952C2359.78,812.653 2359.95,812.248 2359.95,811.825C2359.95,799.826 2359.95,727.403 2359.95,715.403C2359.95,714.981 2359.78,714.575 2359.49,714.277C2359.19,713.978 2358.78,713.81 2358.36,713.81L2352.82,713.81L2352.82,708.14L2349.82,708.14L2349.82,713.81ZM2152.03,762.112L2152.03,740.427L2149.03,740.427L2149.03,762.112L2143.49,762.112C2143.07,762.112 2142.67,762.28 2142.37,762.579C2142.07,762.877 2141.9,763.283 2141.9,763.705C2141.9,772.164 2141.9,829.768 2141.9,838.227C2141.9,838.649 2142.07,839.055 2142.37,839.353C2142.67,839.652 2143.07,839.82 2143.49,839.82L2149.03,839.82L2149.03,849.501L2152.03,849.501L2152.03,839.82L2157.57,839.82C2157.99,839.82 2158.4,839.652 2158.7,839.353C2159,839.055 2159.16,838.649 2159.16,838.227C2159.16,829.768 2159.16,772.164 2159.16,763.705C2159.16,763.283 2159,762.877 2158.7,762.579C2158.4,762.28 2157.99,762.112 2157.57,762.112L2152.03,762.112ZM2116.07,722.768L2110.53,722.768C2109.66,722.768 2108.94,723.481 2108.94,724.361C2108.94,736.246 2108.94,766.717 2108.94,778.601C2108.94,779.481 2109.66,780.195 2110.53,780.195L2116.07,780.195L2116.07,800.695L2119.07,800.695L2119.07,780.195L2124.61,780.195C2125.49,780.195 2126.2,779.481 2126.2,778.601C2126.2,766.717 2126.2,736.246 2126.2,724.361C2126.2,723.481 2125.49,722.768 2124.61,722.768L2119.07,722.768L2119.07,718.073L2116.07,718.073L2116.07,722.768ZM2286.89,666.261L2286.89,655.378L2283.89,655.378L2283.89,666.261L2278.35,666.261C2277.93,666.261 2277.53,666.429 2277.23,666.728C2276.93,667.027 2276.76,667.432 2276.76,667.855C2276.76,675.536 2276.76,708.683 2276.76,716.364C2276.76,716.787 2276.93,717.192 2277.23,717.491C2277.53,717.79 2277.93,717.957 2278.35,717.957L2283.89,717.957L2283.89,739.039L2286.89,739.039L2286.89,717.957L2292.43,717.957C2292.85,717.957 2293.26,717.79 2293.56,717.491C2293.86,717.192 2294.02,716.787 2294.02,716.364C2294.02,708.683 2294.02,675.536 2294.02,667.855C2294.02,667.432 2293.86,667.027 2293.56,666.728C2293.26,666.429 2292.85,666.261 2292.43,666.261L2286.89,666.261ZM2184.99,698.259L2184.99,688.94L2181.99,688.94L2181.99,698.259L2176.45,698.259C2176.03,698.259 2175.62,698.427 2175.32,698.726C2175.02,699.024 2174.85,699.43 2174.85,699.852C2174.85,706.152 2174.85,821.837 2174.85,828.136C2174.85,828.559 2175.02,828.964 2175.32,829.263C2175.62,829.562 2176.03,829.73 2176.45,829.73L2190.52,829.73C2190.95,829.73 2191.35,829.562 2191.65,829.263C2191.95,828.964 2192.12,828.559 2192.12,828.136C2192.12,821.837 2192.12,706.152 2192.12,699.852C2192.12,699.43 2191.95,699.024 2191.65,698.726C2191.35,698.427 2190.95,698.259 2190.52,698.259L2184.99,698.259ZM2316.87,667.27L2311.33,667.27C2310.45,667.27 2309.73,667.983 2309.73,668.864C2309.73,674.829 2309.73,758.673 2309.73,764.638C2309.73,765.518 2310.45,766.232 2311.33,766.232L2316.87,766.232L2316.87,779.973L2319.87,779.973L2319.87,766.232L2325.4,766.232C2326.28,766.232 2327,765.518 2327,764.638C2327,758.673 2327,674.829 2327,668.864C2327,667.983 2326.28,667.27 2325.4,667.27L2319.87,667.27L2319.87,659.826L2316.87,659.826L2316.87,667.27ZM2382.95,737.184L2377.42,737.184C2376.99,737.184 2376.59,737.352 2376.29,737.651C2375.99,737.95 2375.82,738.355 2375.82,738.778C2375.82,747.797 2375.82,802.806 2375.82,811.825C2375.82,812.248 2375.99,812.653 2376.29,812.952C2376.59,813.251 2376.99,813.418 2377.42,813.418L2391.49,813.418C2391.91,813.418 2392.32,813.251 2392.62,812.952C2392.92,812.653 2393.09,812.248 2393.09,811.825C2393.09,802.806 2393.09,747.797 2393.09,738.778C2393.09,738.355 2392.92,737.95 2392.62,737.651C2392.32,737.352 2391.91,737.184 2391.49,737.184L2385.95,737.184L2385.95,731.799L2382.95,731.799L2382.95,737.184ZM2214.92,618.697L2209.38,618.697C2208.96,618.697 2208.56,618.865 2208.26,619.164C2207.96,619.463 2207.79,619.868 2207.79,620.291C2207.79,623.211 2207.79,745.137 2207.79,748.057C2207.79,748.48 2207.96,748.885 2208.26,749.184C2208.56,749.483 2208.96,749.651 2209.38,749.651L2214.92,749.651L2214.92,764.172L2217.92,764.172L2217.92,749.651L2223.46,749.651C2223.88,749.651 2224.29,749.483 2224.59,749.184C2224.89,748.885 2225.05,748.48 2225.05,748.057C2225.05,745.137 2225.05,623.211 2225.05,620.291C2225.05,619.868 2224.89,619.463 2224.59,619.164C2224.29,618.865 2223.88,618.697 2223.46,618.697L2217.92,618.697L2217.92,598.59L2214.92,598.59L2214.92,618.697ZM2256.55,632.475L2242.47,632.475C2241.59,632.475 2240.88,633.188 2240.88,634.068C2240.88,641.786 2240.88,692.899 2240.88,700.618C2240.88,701.498 2241.59,702.211 2242.47,702.211L2248.01,702.211L2248.01,711.822L2251.01,711.822L2251.01,702.211L2256.55,702.211C2257.43,702.211 2258.14,701.498 2258.14,700.618C2258.14,692.899 2258.14,641.786 2258.14,634.068C2258.14,633.188 2257.43,632.475 2256.55,632.475ZM2547.76,731.812L2547.76,768.893L2550.76,768.893L2550.76,731.812L2556.3,731.812C2556.72,731.812 2557.12,731.644 2557.42,731.345C2557.72,731.046 2557.89,730.641 2557.89,730.218C2557.89,723.083 2557.89,644.807 2557.89,637.671C2557.89,637.249 2557.72,636.843 2557.42,636.544C2557.12,636.246 2556.72,636.078 2556.3,636.078C2553.01,636.078 2545.51,636.078 2542.22,636.078C2541.8,636.078 2541.39,636.246 2541.09,636.544C2540.79,636.843 2540.63,637.249 2540.63,637.671C2540.63,644.807 2540.63,723.083 2540.63,730.218C2540.63,730.641 2540.79,731.046 2541.09,731.345C2541.39,731.644 2541.8,731.812 2542.22,731.812L2547.76,731.812ZM2418.93,708.198L2418.93,688.043L2415.93,688.043L2415.93,708.198L2410.39,708.198C2409.97,708.198 2409.56,708.366 2409.26,708.665C2408.97,708.963 2408.8,709.369 2408.8,709.791C2408.8,719.788 2408.8,790.617 2408.8,800.613C2408.8,801.036 2408.97,801.441 2409.26,801.74C2409.56,802.039 2409.97,802.207 2410.39,802.207L2424.47,802.207C2424.89,802.207 2425.3,802.039 2425.6,801.74C2425.89,801.441 2426.06,801.036 2426.06,800.613C2426.06,790.617 2426.06,719.788 2426.06,709.791C2426.06,709.369 2425.89,708.963 2425.6,708.665C2425.3,708.366 2424.89,708.198 2424.47,708.198L2418.93,708.198ZM2613.58,617.865L2608.04,617.865C2607.62,617.865 2607.21,618.033 2606.91,618.332C2606.62,618.631 2606.45,619.036 2606.45,619.459C2606.45,631.817 2606.45,675.099 2606.45,687.457C2606.45,687.879 2606.62,688.285 2606.91,688.584C2607.21,688.882 2607.62,689.05 2608.04,689.05L2613.58,689.05L2613.58,711.304L2616.58,711.304L2616.58,689.05L2622.12,689.05C2622.54,689.05 2622.95,688.882 2623.24,688.584C2623.54,688.285 2623.71,687.879 2623.71,687.457C2623.71,675.099 2623.71,631.817 2623.71,619.459C2623.71,619.036 2623.54,618.631 2623.24,618.332C2622.95,618.033 2622.54,617.865 2622.12,617.865L2616.58,617.865L2616.58,596.656L2613.58,596.656L2613.58,617.865ZM2481.84,772.486L2481.84,794.623L2484.84,794.623L2484.84,772.486L2490.38,772.486C2490.8,772.486 2491.21,772.318 2491.51,772.019C2491.81,771.72 2491.97,771.315 2491.97,770.892C2491.97,760.93 2491.97,728.068 2491.97,718.105C2491.97,717.683 2491.81,717.277 2491.51,716.978C2491.21,716.68 2490.8,716.512 2490.38,716.512C2487.09,716.512 2479.59,716.512 2476.3,716.512C2475.88,716.512 2475.48,716.68 2475.18,716.978C2474.88,717.277 2474.71,717.683 2474.71,718.105C2474.71,728.068 2474.71,760.93 2474.71,770.892C2474.71,771.315 2474.88,771.72 2475.18,772.019C2475.48,772.318 2475.88,772.486 2476.3,772.486L2481.84,772.486ZM2443.22,785.43L2457.29,785.43C2457.72,785.43 2458.12,785.262 2458.42,784.964C2458.72,784.665 2458.89,784.259 2458.89,783.837C2458.89,772.52 2458.89,732.175 2458.89,720.858C2458.89,720.436 2458.72,720.031 2458.42,719.732C2458.12,719.433 2457.72,719.265 2457.29,719.265C2454.01,719.265 2446.51,719.265 2443.22,719.265C2442.8,719.265 2442.39,719.433 2442.09,719.732C2441.79,720.031 2441.62,720.436 2441.62,720.858C2441.62,732.175 2441.62,772.52 2441.62,783.837C2441.62,784.259 2441.79,784.665 2442.09,784.964C2442.39,785.262 2442.8,785.43 2443.22,785.43ZM2589.17,563.899L2575.09,563.899C2574.21,563.899 2573.5,564.613 2573.5,565.493C2573.5,569.184 2573.5,663.197 2573.5,666.888C2573.5,667.768 2574.21,668.482 2575.09,668.482L2580.63,668.482L2580.63,690.735L2583.63,690.735L2583.63,668.482L2589.17,668.482C2590.05,668.482 2590.76,667.768 2590.76,666.888C2590.76,663.197 2590.76,569.184 2590.76,565.493C2590.76,564.613 2590.05,563.899 2589.17,563.899ZM2514.7,618.075L2509.16,618.075C2508.74,618.075 2508.33,618.243 2508.03,618.542C2507.73,618.84 2507.57,619.246 2507.57,619.668C2507.57,622.349 2507.57,721.869 2507.57,724.55C2507.57,724.973 2507.73,725.378 2508.03,725.677C2508.33,725.976 2508.74,726.144 2509.16,726.144L2523.23,726.144C2523.66,726.144 2524.06,725.976 2524.36,725.677C2524.66,725.378 2524.83,724.973 2524.83,724.55C2524.83,721.869 2524.83,622.349 2524.83,619.668C2524.83,619.246 2524.66,618.84 2524.36,618.542C2524.06,618.243 2523.66,618.075 2523.23,618.075L2517.7,618.075L2517.7,597.668L2514.7,597.668L2514.7,618.075ZM2679.47,644.137L2673.93,644.137C2673.5,644.137 2673.1,644.305 2672.8,644.604C2672.5,644.903 2672.33,645.308 2672.33,645.731C2672.33,648.63 2672.33,654.736 2672.33,657.635C2672.33,658.058 2672.5,658.463 2672.8,658.762C2673.1,659.061 2673.5,659.229 2673.93,659.229L2679.47,659.229L2679.47,681.082L2682.47,681.082L2682.47,659.229L2688,659.229C2688.43,659.229 2688.83,659.061 2689.13,658.762C2689.43,658.463 2689.6,658.058 2689.6,657.635C2689.6,654.736 2689.6,648.63 2689.6,645.731C2689.6,645.308 2689.43,644.903 2689.13,644.604C2688.83,644.305 2688.43,644.137 2688,644.137L2682.47,644.137L2682.47,624.517L2679.47,624.517L2679.47,644.137ZM2649.72,630.291L2649.72,610.671L2646.72,610.671L2646.72,630.291L2641.18,630.291C2640.76,630.291 2640.35,630.459 2640.06,630.758C2639.76,631.057 2639.59,631.462 2639.59,631.885C2639.59,637.106 2639.59,653.66 2639.59,658.882C2639.59,659.304 2639.76,659.71 2640.06,660.008C2640.35,660.307 2640.76,660.475 2641.18,660.475L2646.72,660.475L2646.72,667.236L2649.72,667.236L2649.72,660.475L2655.26,660.475C2655.68,660.475 2656.09,660.307 2656.39,660.008C2656.68,659.71 2656.85,659.304 2656.85,658.882C2656.85,653.66 2656.85,637.106 2656.85,631.885C2656.85,631.462 2656.68,631.057 2656.39,630.758C2656.09,630.459 2655.68,630.291 2655.26,630.291L2649.72,630.291ZM2715.75,646.097L2715.75,626.477L2712.75,626.477L2712.75,646.097L2707.21,646.097C2706.33,646.097 2705.62,646.811 2705.62,647.691C2705.62,656.049 2705.62,679.086 2705.62,687.445C2705.62,688.325 2706.33,689.038 2707.21,689.038L2712.75,689.038L2712.75,702.619L2715.75,702.619L2715.75,689.038L2721.28,689.038C2722.16,689.038 2722.88,688.325 2722.88,687.445C2722.88,679.086 2722.88,656.049 2722.88,647.691C2722.88,646.811 2722.16,646.097 2721.28,646.097L2715.75,646.097ZM2745.5,625.71L2739.96,625.71C2739.08,625.71 2738.37,626.423 2738.37,627.303C2738.37,635.662 2738.37,665.625 2738.37,673.983C2738.37,674.863 2739.08,675.577 2739.96,675.577L2745.5,675.577L2745.5,681.51L2748.5,681.51L2748.5,675.577L2754.04,675.577C2754.92,675.577 2755.63,674.863 2755.63,673.983C2755.63,665.625 2755.63,635.662 2755.63,627.303C2755.63,626.423 2754.92,625.71 2754.04,625.71L2748.5,625.71L2748.5,606.205L2745.5,606.205L2745.5,625.71Z" style="fill:rgb(0,16,39);"/>
                </g>
                <g transform="matrix(1.85509,-9.14802e-17,-2.45523e-16,-1.65738,-631.394,1628.01)">
                    <path d="M2349.82,713.81L2344.28,713.81C2343.86,713.81 2343.45,713.978 2343.16,714.277C2342.86,714.575 2342.69,714.981 2342.69,715.403C2342.69,727.403 2342.69,799.826 2342.69,811.825C2342.69,812.248 2342.86,812.653 2343.16,812.952C2343.45,813.251 2343.86,813.418 2344.28,813.418L2358.36,813.418C2358.78,813.418 2359.19,813.251 2359.49,812.952C2359.78,812.653 2359.95,812.248 2359.95,811.825C2359.95,799.826 2359.95,727.403 2359.95,715.403C2359.95,714.981 2359.78,714.575 2359.49,714.277C2359.19,713.978 2358.78,713.81 2358.36,713.81L2352.82,713.81L2352.82,708.14L2349.82,708.14L2349.82,713.81ZM2152.03,762.112L2152.03,740.427L2149.03,740.427L2149.03,762.112L2143.49,762.112C2143.07,762.112 2142.67,762.28 2142.37,762.579C2142.07,762.877 2141.9,763.283 2141.9,763.705C2141.9,772.164 2141.9,829.768 2141.9,838.227C2141.9,838.649 2142.07,839.055 2142.37,839.353C2142.67,839.652 2143.07,839.82 2143.49,839.82L2149.03,839.82L2149.03,849.501L2152.03,849.501L2152.03,839.82L2157.57,839.82C2157.99,839.82 2158.4,839.652 2158.7,839.353C2159,839.055 2159.16,838.649 2159.16,838.227C2159.16,829.768 2159.16,772.164 2159.16,763.705C2159.16,763.283 2159,762.877 2158.7,762.579C2158.4,762.28 2157.99,762.112 2157.57,762.112L2152.03,762.112ZM2116.07,745.034L2110.53,745.034C2109.66,745.034 2108.94,745.747 2108.94,746.627C2108.94,758.512 2108.94,766.717 2108.94,778.601C2108.94,779.481 2109.66,780.195 2110.53,780.195L2116.07,780.195L2116.07,800.695L2119.07,800.695L2119.07,780.195L2124.61,780.195C2125.49,780.195 2126.2,779.481 2126.2,778.601C2126.2,766.717 2126.2,758.512 2126.2,746.627C2126.2,745.747 2125.49,745.034 2124.61,745.034L2119.07,745.034L2119.07,718.073L2116.07,718.073L2116.07,745.034ZM2286.89,666.261L2286.89,655.378L2283.89,655.378L2283.89,666.261L2278.35,666.261C2277.93,666.261 2277.53,666.429 2277.23,666.728C2276.93,667.027 2276.76,667.432 2276.76,667.855C2276.76,675.536 2276.76,708.683 2276.76,716.364C2276.76,716.787 2276.93,717.192 2277.23,717.491C2277.53,717.79 2277.93,717.957 2278.35,717.957L2283.89,717.957L2283.89,739.039L2286.89,739.039L2286.89,717.957L2292.43,717.957C2292.85,717.957 2293.26,717.79 2293.56,717.491C2293.86,717.192 2294.02,716.787 2294.02,716.364C2294.02,708.683 2294.02,675.536 2294.02,667.855C2294.02,667.432 2293.86,667.027 2293.56,666.728C2293.26,666.429 2292.85,666.261 2292.43,666.261L2286.89,666.261ZM2184.99,698.259L2184.99,688.94L2181.99,688.94L2181.99,698.259L2176.45,698.259C2176.03,698.259 2175.62,698.427 2175.32,698.726C2175.02,699.024 2174.85,699.43 2174.85,699.852C2174.85,706.152 2174.85,821.837 2174.85,828.136C2174.85,828.559 2175.02,828.964 2175.32,829.263C2175.62,829.562 2176.03,829.73 2176.45,829.73L2190.52,829.73C2190.95,829.73 2191.35,829.562 2191.65,829.263C2191.95,828.964 2192.12,828.559 2192.12,828.136C2192.12,821.837 2192.12,706.152 2192.12,699.852C2192.12,699.43 2191.95,699.024 2191.65,698.726C2191.35,698.427 2190.95,698.259 2190.52,698.259L2184.99,698.259ZM2316.87,667.27L2311.33,667.27C2310.45,667.27 2309.73,667.983 2309.73,668.864C2309.73,674.829 2309.73,758.673 2309.73,764.638C2309.73,765.518 2310.45,766.232 2311.33,766.232L2316.87,766.232L2316.87,779.973L2319.87,779.973L2319.87,766.232L2325.4,766.232C2326.28,766.232 2327,765.518 2327,764.638C2327,758.673 2327,674.829 2327,668.864C2327,667.983 2326.28,667.27 2325.4,667.27L2319.87,667.27L2319.87,659.826L2316.87,659.826L2316.87,667.27ZM2382.95,737.184L2377.42,737.184C2376.99,737.184 2376.59,737.352 2376.29,737.651C2375.99,737.95 2375.82,738.355 2375.82,738.778C2375.82,747.797 2375.82,802.806 2375.82,811.825C2375.82,812.248 2375.99,812.653 2376.29,812.952C2376.59,813.251 2376.99,813.418 2377.42,813.418L2391.49,813.418C2391.91,813.418 2392.32,813.251 2392.62,812.952C2392.92,812.653 2393.09,812.248 2393.09,811.825C2393.09,802.806 2393.09,747.797 2393.09,738.778C2393.09,738.355 2392.92,737.95 2392.62,737.651C2392.32,737.352 2391.91,737.184 2391.49,737.184L2385.95,737.184L2385.95,731.799L2382.95,731.799L2382.95,737.184ZM2214.92,618.697L2209.38,618.697C2208.96,618.697 2208.56,618.865 2208.26,619.164C2207.96,619.463 2207.79,619.868 2207.79,620.291C2207.79,623.211 2207.79,745.137 2207.79,748.057C2207.79,748.48 2207.96,748.885 2208.26,749.184C2208.56,749.483 2208.96,749.651 2209.38,749.651L2214.92,749.651L2214.92,764.172L2217.92,764.172L2217.92,749.651L2223.46,749.651C2223.88,749.651 2224.29,749.483 2224.59,749.184C2224.89,748.885 2225.05,748.48 2225.05,748.057C2225.05,745.137 2225.05,623.211 2225.05,620.291C2225.05,619.868 2224.89,619.463 2224.59,619.164C2224.29,618.865 2223.88,618.697 2223.46,618.697L2217.92,618.697L2217.92,598.59L2214.92,598.59L2214.92,618.697ZM2256.55,632.475L2242.47,632.475C2241.59,632.475 2240.88,633.188 2240.88,634.068C2240.88,641.786 2240.88,692.899 2240.88,700.618C2240.88,701.498 2241.59,702.211 2242.47,702.211L2248.01,702.211L2248.01,711.822L2251.01,711.822L2251.01,702.211L2256.55,702.211C2257.43,702.211 2258.14,701.498 2258.14,700.618C2258.14,692.899 2258.14,641.786 2258.14,634.068C2258.14,633.188 2257.43,632.475 2256.55,632.475ZM2547.76,731.812L2547.76,768.893L2550.76,768.893L2550.76,731.812L2556.3,731.812C2556.72,731.812 2557.12,731.644 2557.42,731.345C2557.72,731.046 2557.89,730.641 2557.89,730.218C2557.89,723.083 2557.89,644.807 2557.89,637.671C2557.89,637.249 2557.72,636.843 2557.42,636.544C2557.12,636.246 2556.72,636.078 2556.3,636.078C2553.01,636.078 2545.51,636.078 2542.22,636.078C2541.8,636.078 2541.39,636.246 2541.09,636.544C2540.79,636.843 2540.63,637.249 2540.63,637.671C2540.63,644.807 2540.63,723.083 2540.63,730.218C2540.63,730.641 2540.79,731.046 2541.09,731.345C2541.39,731.644 2541.8,731.812 2542.22,731.812L2547.76,731.812ZM2418.93,708.198L2418.93,688.043L2415.93,688.043L2415.93,708.198L2410.39,708.198C2409.97,708.198 2409.56,708.366 2409.26,708.665C2408.97,708.963 2408.8,709.369 2408.8,709.791C2408.8,719.788 2408.8,790.617 2408.8,800.613C2408.8,801.036 2408.97,801.441 2409.26,801.74C2409.56,802.039 2409.97,802.207 2410.39,802.207L2424.47,802.207C2424.89,802.207 2425.3,802.039 2425.6,801.74C2425.89,801.441 2426.06,801.036 2426.06,800.613C2426.06,790.617 2426.06,719.788 2426.06,709.791C2426.06,709.369 2425.89,708.963 2425.6,708.665C2425.3,708.366 2424.89,708.198 2424.47,708.198L2418.93,708.198ZM2613.58,617.865L2608.04,617.865C2607.62,617.865 2607.21,618.033 2606.91,618.332C2606.62,618.631 2606.45,619.036 2606.45,619.459C2606.45,631.817 2606.45,675.099 2606.45,687.457C2606.45,687.879 2606.62,688.285 2606.91,688.584C2607.21,688.882 2607.62,689.05 2608.04,689.05L2613.58,689.05L2613.58,711.304L2616.58,711.304L2616.58,689.05L2622.12,689.05C2622.54,689.05 2622.95,688.882 2623.24,688.584C2623.54,688.285 2623.71,687.879 2623.71,687.457C2623.71,675.099 2623.71,631.817 2623.71,619.459C2623.71,619.036 2623.54,618.631 2623.24,618.332C2622.95,618.033 2622.54,617.865 2622.12,617.865L2616.58,617.865L2616.58,596.656L2613.58,596.656L2613.58,617.865ZM2481.84,772.486L2481.84,794.623L2484.84,794.623L2484.84,772.486L2490.38,772.486C2490.8,772.486 2491.21,772.318 2491.51,772.019C2491.81,771.72 2491.97,771.315 2491.97,770.892C2491.97,760.93 2491.97,728.068 2491.97,718.105C2491.97,717.683 2491.81,717.277 2491.51,716.978C2491.21,716.68 2490.8,716.512 2490.38,716.512C2487.09,716.512 2479.59,716.512 2476.3,716.512C2475.88,716.512 2475.48,716.68 2475.18,716.978C2474.88,717.277 2474.71,717.683 2474.71,718.105C2474.71,728.068 2474.71,760.93 2474.71,770.892C2474.71,771.315 2474.88,771.72 2475.18,772.019C2475.48,772.318 2475.88,772.486 2476.3,772.486L2481.84,772.486ZM2443.22,785.43L2457.29,785.43C2457.72,785.43 2458.12,785.262 2458.42,784.964C2458.72,784.665 2458.89,784.259 2458.89,783.837C2458.89,772.52 2458.89,732.175 2458.89,720.858C2458.89,720.436 2458.72,720.031 2458.42,719.732C2458.12,719.433 2457.72,719.265 2457.29,719.265C2454.01,719.265 2446.51,719.265 2443.22,719.265C2442.8,719.265 2442.39,719.433 2442.09,719.732C2441.79,720.031 2441.62,720.436 2441.62,720.858C2441.62,732.175 2441.62,772.52 2441.62,783.837C2441.62,784.259 2441.79,784.665 2442.09,784.964C2442.39,785.262 2442.8,785.43 2443.22,785.43ZM2589.17,563.899L2575.09,563.899C2574.21,563.899 2573.5,564.613 2573.5,565.493C2573.5,569.184 2573.5,663.197 2573.5,666.888C2573.5,667.768 2574.21,668.482 2575.09,668.482L2580.63,668.482L2580.63,690.735L2583.63,690.735L2583.63,668.482L2589.17,668.482C2590.05,668.482 2590.76,667.768 2590.76,666.888C2590.76,663.197 2590.76,569.184 2590.76,565.493C2590.76,564.613 2590.05,563.899 2589.17,563.899ZM2514.7,618.075L2509.16,618.075C2508.74,618.075 2508.33,618.243 2508.03,618.542C2507.73,618.84 2507.57,619.246 2507.57,619.668C2507.57,622.349 2507.57,721.869 2507.57,724.55C2507.57,724.973 2507.73,725.378 2508.03,725.677C2508.33,725.976 2508.74,726.144 2509.16,726.144L2523.23,726.144C2523.66,726.144 2524.06,725.976 2524.36,725.677C2524.66,725.378 2524.83,724.973 2524.83,724.55C2524.83,721.869 2524.83,622.349 2524.83,619.668C2524.83,619.246 2524.66,618.84 2524.36,618.542C2524.06,618.243 2523.66,618.075 2523.23,618.075L2517.7,618.075L2517.7,597.668L2514.7,597.668L2514.7,618.075ZM2679.47,644.137L2673.93,644.137C2673.5,644.137 2673.1,644.305 2672.8,644.604C2672.5,644.903 2672.33,645.308 2672.33,645.731C2672.33,648.63 2672.33,654.736 2672.33,657.635C2672.33,658.058 2672.5,658.463 2672.8,658.762C2673.1,659.061 2673.5,659.229 2673.93,659.229L2679.47,659.229L2679.47,681.082L2682.47,681.082L2682.47,659.229L2688,659.229C2688.43,659.229 2688.83,659.061 2689.13,658.762C2689.43,658.463 2689.6,658.058 2689.6,657.635C2689.6,654.736 2689.6,648.63 2689.6,645.731C2689.6,645.308 2689.43,644.903 2689.13,644.604C2688.83,644.305 2688.43,644.137 2688,644.137L2682.47,644.137L2682.47,624.517L2679.47,624.517L2679.47,644.137ZM2649.72,630.291L2649.72,610.671L2646.72,610.671L2646.72,630.291L2641.18,630.291C2640.76,630.291 2640.35,630.459 2640.06,630.758C2639.76,631.057 2639.59,631.462 2639.59,631.885C2639.59,637.106 2639.59,653.66 2639.59,658.882C2639.59,659.304 2639.76,659.71 2640.06,660.008C2640.35,660.307 2640.76,660.475 2641.18,660.475L2646.72,660.475L2646.72,667.236L2649.72,667.236L2649.72,660.475L2655.26,660.475C2655.68,660.475 2656.09,660.307 2656.39,660.008C2656.68,659.71 2656.85,659.304 2656.85,658.882C2656.85,653.66 2656.85,637.106 2656.85,631.885C2656.85,631.462 2656.68,631.057 2656.39,630.758C2656.09,630.459 2655.68,630.291 2655.26,630.291L2649.72,630.291ZM2715.75,646.097L2715.75,626.477L2712.75,626.477L2712.75,646.097L2707.21,646.097C2706.33,646.097 2705.62,646.811 2705.62,647.691C2705.62,656.049 2705.62,679.086 2705.62,687.445C2705.62,688.325 2706.33,689.038 2707.21,689.038L2712.75,689.038L2712.75,702.619L2715.75,702.619L2715.75,689.038L2721.28,689.038C2722.16,689.038 2722.88,688.325 2722.88,687.445C2722.88,679.086 2722.88,656.049 2722.88,647.691C2722.88,646.811 2722.16,646.097 2721.28,646.097L2715.75,646.097ZM2745.5,625.71L2739.96,625.71C2739.08,625.71 2738.37,626.423 2738.37,627.303C2738.37,635.662 2738.37,665.625 2738.37,673.983C2738.37,674.863 2739.08,675.577 2739.96,675.577L2745.5,675.577L2745.5,681.51L2748.5,681.51L2748.5,675.577L2754.04,675.577C2754.92,675.577 2755.63,674.863 2755.63,673.983C2755.63,665.625 2755.63,635.662 2755.63,627.303C2755.63,626.423 2754.92,625.71 2754.04,625.71L2748.5,625.71L2748.5,606.205L2745.5,606.205L2745.5,625.71Z" style="fill:rgb(0,16,39);"/>
                </g>
            </g>
        </g>
    </g>
</svg>
