<svg width="60" height="60" viewBox="0 0 60 60" fill="none" xmlns="http://www.w3.org/2000/svg">
<g clip-path="url(#clip0_3684_2269)">
<mask id="mask0_3684_2269" style="mask-type:luminance" maskUnits="userSpaceOnUse" x="0" y="0" width="61" height="60">
<path d="M60.0002 0H0V60.0002H60.0002V0Z" fill="white"/>
</mask>
<g mask="url(#mask0_3684_2269)">
<path fill-rule="evenodd" clip-rule="evenodd" d="M15.6338 36.9751L9.62674 41.7811C9.32674 42.0211 8.91473 42.0681 8.56873 41.9021C8.22173 41.7351 8.00174 41.3851 8.00174 41.0001V34.0001H5.36974C2.40473 34.0001 0.00170898 31.5971 0.00170898 28.6331C0.00170898 23.3811 0.00170898 14.62 0.00170898 9.36802C0.00170898 6.40401 2.40473 4 5.36974 4C14.1508 4 29.7208 4 38.5019 4C41.4669 4 43.8699 6.40401 43.8699 9.36802V23.6331H54.6339C57.5989 23.6331 60.0019 26.0361 60.0019 29.0001C60.0019 34.2521 60.0019 41.3811 60.0019 46.6332C60.0019 49.5972 57.5989 52.0002 54.6339 52.0002H52.0019V59.0002C52.0019 59.3852 51.7819 59.7352 51.4349 59.9022C51.0889 60.0682 50.6769 60.0212 50.3769 59.7812L40.6508 52.0002H21.0018C18.0368 52.0002 15.6338 49.5972 15.6338 46.6332V36.9751ZM41.6269 50.2192C41.4489 50.0782 41.2289 50.0002 41.0019 50.0002H21.0018C19.1418 50.0002 17.6338 48.4932 17.6338 46.6332V29.0001C17.6338 27.1401 19.1418 25.6331 21.0018 25.6331C29.7828 25.6331 45.8529 25.6331 54.6339 25.6331C56.4939 25.6331 58.0019 27.1401 58.0019 29.0001V46.6332C58.0019 48.4932 56.4939 50.0002 54.6339 50.0002H51.0019C50.4499 50.0002 50.0019 50.4482 50.0019 51.0002V56.9202L41.6269 50.2192ZM24.8178 42.0001H46.8179C47.3699 42.0001 47.8179 41.5521 47.8179 41.0001C47.8179 40.4481 47.3699 40.0001 46.8179 40.0001H24.8178C24.2658 40.0001 23.8178 40.4481 23.8178 41.0001C23.8178 41.5521 24.2658 42.0001 24.8178 42.0001ZM41.8699 23.6331V9.36802C41.8699 7.50801 40.3619 6.00001 38.5019 6.00001C29.7208 6.00001 14.1508 6.00001 5.36974 6.00001C3.50973 6.00001 2.00172 7.50801 2.00172 9.36802V28.6331C2.00172 30.4931 3.50973 32.0001 5.36974 32.0001H9.00174C9.55374 32.0001 10.0017 32.4481 10.0017 33.0001V38.9201L15.6338 34.4141V29.0001C15.6338 26.0361 18.0368 23.6331 21.0018 23.6331H41.8699ZM24.8178 36.0001H50.8179C51.3699 36.0001 51.8179 35.5521 51.8179 35.0001C51.8179 34.4481 51.3699 34.0001 50.8179 34.0001H24.8178C24.2658 34.0001 23.8178 34.4481 23.8178 35.0001C23.8178 35.5521 24.2658 36.0001 24.8178 36.0001ZM29.0018 17C27.8978 17 27.0018 17.8971 27.0018 19.0001C27.0018 20.1041 27.8978 21.0001 29.0018 21.0001C30.1058 21.0001 31.0018 20.1041 31.0018 19.0001C31.0018 17.8971 30.1058 17 29.0018 17ZM22.0018 17C20.8978 17 20.0018 17.8971 20.0018 19.0001C20.0018 20.1041 20.8978 21.0001 22.0018 21.0001C23.1058 21.0001 24.0018 20.1041 24.0018 19.0001C24.0018 17.8971 23.1058 17 22.0018 17ZM15.0018 17C13.8978 17 13.0018 17.8971 13.0018 19.0001C13.0018 20.1041 13.8978 21.0001 15.0018 21.0001C16.1058 21.0001 17.0018 20.1041 17.0018 19.0001C17.0018 17.8971 16.1058 17 15.0018 17Z" fill="#01A5F4"/>
</g>
</g>
<defs>
<clipPath id="clip0_3684_2269">
<rect width="60" height="60" fill="white"/>
</clipPath>
</defs>
</svg>
