<svg width="60" height="60" viewBox="0 0 60 60" fill="none" xmlns="http://www.w3.org/2000/svg">
<g clip-path="url(#clip0_3684_2220)">
<path fill-rule="evenodd" clip-rule="evenodd" d="M46.7323 35.318C47.2423 35.348 47.7122 35.4583 48.1422 35.6383C49.6722 36.2584 50.6723 37.7381 50.6623 39.4181C50.6523 40.4882 50.2423 41.6482 49.2323 42.7082C49.2323 42.7182 49.2123 42.7285 49.2023 42.7385L35.7023 55.7385C35.6923 55.7485 35.6822 55.7583 35.6722 55.7683C33.9922 57.2383 31.7524 57.9982 29.3324 58.1282C25.8423 58.3382 21.9622 57.2582 18.9722 55.3581C16.4722 53.7681 14.0522 51.5584 11.7622 48.6784C10.1622 46.9484 8.01221 43.5983 8.01221 40.0182V23.0182C8.01221 19.4382 11.2523 18.118 13.6123 18.8981C14.6723 19.2581 15.5522 20.0283 15.9522 21.1783C15.9522 21.1783 18.9322 29.1181 18.9322 29.1281C19.1322 29.5081 19.3123 29.7581 19.5623 29.8581C19.9223 30.0081 20.3122 29.8281 20.7322 29.6081L42.1224 8.22809C43.9324 6.41808 46.8623 6.41808 48.6723 8.22809C50.4823 10.0381 50.4823 12.9679 48.6723 14.7779L40.0624 23.378C40.9024 23.518 41.6124 23.9184 42.1224 24.4884C42.9424 25.4184 43.3323 26.9183 42.7523 28.6383C44.4123 28.4283 45.9224 29.0283 46.7724 30.1183C47.6724 31.2683 47.9523 33.138 46.7323 35.318ZM44.4723 38.0783C44.2223 38.3083 43.9422 38.548 43.6422 38.798C43.2322 39.128 42.6223 39.0882 42.2723 38.6882C41.9123 38.2882 41.9324 37.6883 42.3024 37.3083C42.6124 37.0083 42.9123 36.7482 43.2123 36.5182C44.4023 35.4182 45.0922 34.3882 45.4022 33.4582C45.6922 32.5982 45.6023 31.8581 45.2023 31.3581C44.3323 30.2381 42.3323 30.2684 40.6823 31.7584C40.2822 32.1285 39.6624 32.0982 39.2924 31.7082C38.9123 31.3182 38.9224 30.6983 39.3024 30.3083C40.3024 29.3082 40.8423 28.3382 40.9923 27.4782C41.1123 26.7982 40.9824 26.208 40.6324 25.818C39.8424 24.948 38.2823 25.1582 36.7223 26.7282C36.3323 27.1182 35.6923 27.1182 35.3023 26.7282C34.9123 26.3382 34.9123 25.6982 35.3023 25.3082L47.2523 13.358C48.2823 12.338 48.2823 10.6683 47.2523 9.63825C46.2223 8.60825 44.5624 8.60825 43.5324 9.63825L22.0423 31.1281C21.9723 31.1981 21.8923 31.2583 21.8023 31.3083C20.7323 31.8783 19.7023 32.0782 18.8023 31.7082C18.1923 31.4582 17.5923 30.9382 17.1123 29.9582C17.1023 29.9282 17.0923 29.8983 17.0723 29.8683L14.0723 21.8683C14.0723 21.8583 14.0723 21.848 14.0623 21.838C13.8223 21.108 13.1321 20.7381 12.4121 20.6881C11.2621 20.6081 10.0122 21.3782 10.0122 23.0182V40.0182C10.0122 43.0583 11.8922 45.8781 13.2422 47.3381C13.2622 47.3581 13.2823 47.3782 13.2923 47.3982C15.4523 50.0982 17.7023 52.1784 20.0523 53.6785C22.6923 55.3585 26.1222 56.3184 29.2122 56.1384C31.1622 56.0284 32.9824 55.4581 34.3424 54.2781C34.3424 54.2781 47.8024 41.318 47.8124 41.298C49.1824 39.828 48.7225 38.0385 47.3825 37.4885C46.5825 37.1484 45.5523 37.2883 44.4723 38.0783ZM24.9722 9.16803C25.1322 9.69804 24.8223 10.2583 24.2923 10.4083C23.7623 10.5683 23.2123 10.2581 23.0523 9.72809L21.0523 2.87797C20.9023 2.34797 21.2022 1.79822 21.7322 1.63822C22.2622 1.48822 22.8122 1.78791 22.9722 2.31791L24.9722 9.16803ZM31.8922 12.4981C31.6322 12.9781 31.0223 13.158 30.5423 12.898C30.0523 12.638 29.8724 12.0282 30.1324 11.5382L33.1324 5.97808C33.3924 5.49808 34.0023 5.31818 34.4823 5.57818C34.9723 5.83818 35.1522 6.44828 34.8922 6.92828L31.8922 12.4981ZM19.7222 14.3082C20.1122 14.6982 20.1122 15.3381 19.7222 15.7281C19.3322 16.1181 18.6923 16.1181 18.3023 15.7281L13.3023 10.7281C12.9123 10.3381 12.9123 9.69817 13.3023 9.30817C13.6923 8.91817 14.3322 8.91817 14.7222 9.30817L19.7222 14.3082Z" fill="#01A5F4"/>
</g>
<defs>
<clipPath id="clip0_3684_2220">
<rect width="60" height="60" fill="white"/>
</clipPath>
</defs>
</svg>
