<svg width="60" height="60" viewBox="0 0 60 60" fill="none" xmlns="http://www.w3.org/2000/svg">
<g clip-path="url(#clip0_3684_2365)">
<path fill-rule="evenodd" clip-rule="evenodd" d="M26.5623 45.0182L13.6123 54.818C13.3123 55.048 12.9023 55.0781 12.5723 54.9181C12.2323 54.7481 12.0122 54.3982 12.0122 54.0182V45.0182H8.64211C4.9821 45.0182 2.01221 42.0583 2.01221 38.4083V13.628C2.01221 9.97794 4.9821 7.01807 8.64211 7.01807H51.3825C55.0425 7.01807 58.0124 9.97794 58.0124 13.628V38.4083C58.0124 42.0583 55.0425 45.0182 51.3825 45.0182H26.5623ZM26.2323 43.0182H51.3825C53.9325 43.0182 56.0124 40.9583 56.0124 38.4083V13.628C56.0124 11.0779 53.9325 9.01807 51.3825 9.01807H8.64211C6.0921 9.01807 4.01221 11.0779 4.01221 13.628V38.4083C4.01221 40.9583 6.0921 43.0182 8.64211 43.0182H13.0122C13.5623 43.0182 14.0123 43.4682 14.0123 44.0182V52.0085L25.6224 43.2184C25.8024 43.0884 26.0123 43.0182 26.2323 43.0182ZM29.2623 37.6783L15.2623 21.6783C14.9123 21.2783 14.9323 20.6782 15.3023 20.3082L21.3023 14.3081C21.4923 14.1281 21.7523 14.0181 22.0123 14.0181C22.0123 14.0181 27.0223 14.0181 27.0323 14.0181C27.0323 14.0181 33.0223 14.0181 33.0323 14.0181H38.0123C38.2723 14.0181 38.5323 14.1281 38.7223 14.3081L44.7223 20.3082C45.0923 20.6782 45.1124 21.2783 44.7624 21.6783L30.7623 37.6783C30.7323 37.7083 30.7022 37.7382 30.6722 37.7682C30.2922 38.0982 29.7324 38.0982 29.3524 37.7682C29.3224 37.7382 29.2923 37.7083 29.2623 37.6783ZM18.2122 22.0181L28.0323 33.2384L24.2923 22.0181H18.2122ZM31.9923 33.2384L41.8124 22.0181H35.7323L31.9923 33.2384ZM26.4022 22.0181L30.0123 32.858L33.6224 22.0181H26.4022ZM25.6224 16.0181H22.4222L18.4222 20.0181H24.2923L25.6224 16.0181ZM32.2923 16.0181H27.7323L26.4022 20.0181H33.6224L32.2923 16.0181ZM41.6024 20.0181L37.6024 16.0181H34.4022L35.7323 20.0181H41.6024Z" fill="#01A5F4"/>
</g>
<defs>
<clipPath id="clip0_3684_2365">
<rect width="60" height="60" fill="white"/>
</clipPath>
</defs>
</svg>
