<svg width="60" height="60" viewBox="0 0 60 60" fill="none" xmlns="http://www.w3.org/2000/svg">
<g clip-path="url(#clip0_3684_2336)">
<path fill-rule="evenodd" clip-rule="evenodd" d="M12.0159 32.5182H7.85597C5.73596 32.5182 4.01587 30.7983 4.01587 28.6783V22.358C4.01587 20.238 5.73596 18.5181 7.85597 18.5181H12.0159V18.0181C12.0159 17.4681 12.4659 17.0181 13.0159 17.0181H25.796L48.016 6.87794V6.16798C48.016 4.70797 49.2059 3.51807 50.6659 3.51807H53.3661C54.8262 3.51807 56.0161 4.70797 56.0161 6.16798V43.8683C56.0161 45.3283 54.8262 46.5182 53.3661 46.5182H50.6659C49.2059 46.5182 48.016 45.3283 48.016 43.8683V43.6784L27.016 34.5382V51.0383C27.016 52.6783 25.676 54.0182 24.036 54.0182H19.9959C18.3559 54.0182 17.0159 52.6783 17.0159 51.0383V34.0182H13.0159C12.4659 34.0182 12.0159 33.5682 12.0159 33.0182V32.5182ZM12.0159 20.5181H7.85597C6.83597 20.5181 6.01588 21.338 6.01588 22.358V28.6783C6.01588 29.6983 6.83597 30.5182 7.85597 30.5182H12.0159V20.5181ZM25.0159 19.0181H14.0159V31.5182V32.0182C14.0159 32.0182 15.8459 32.0182 18.0159 32.0182H25.0159V19.0181ZM48.016 9.07815C43.096 11.3182 27.016 18.6583 27.016 18.6583V32.358L48.016 41.4982V9.07815ZM50.016 43.0382V43.8683C50.016 44.2283 50.3059 44.5182 50.6659 44.5182H53.3661C53.7262 44.5182 54.0161 44.2283 54.0161 43.8683V6.16798C54.0161 5.80798 53.7262 5.51807 53.3661 5.51807H50.6659C50.3059 5.51807 50.016 5.80798 50.016 6.16798C50.016 6.16798 50.016 7.5181 50.016 7.5381C50.016 7.5381 50.016 43.0282 50.016 43.0382ZM19.0159 34.0182V51.0383C19.0159 51.5783 19.4559 52.0182 19.9959 52.0182H24.036C24.576 52.0182 25.0159 51.5783 25.0159 51.0383V34.0182H19.0159Z" fill="#01A5F4"/>
</g>
<defs>
<clipPath id="clip0_3684_2336">
<rect width="60" height="60" fill="white"/>
</clipPath>
</defs>
</svg>
