<svg width="60" height="60" viewBox="0 0 60 60" fill="none" xmlns="http://www.w3.org/2000/svg">
<g clip-path="url(#clip0_3684_2345)">
<path fill-rule="evenodd" clip-rule="evenodd" d="M19.0176 38.0182V22.0181C19.0176 21.4681 19.4676 21.0181 20.0176 21.0181H37.0177V5.01808C37.0177 4.46808 37.4677 4.01807 38.0177 4.01807H57.0178C57.5678 4.01807 58.0178 4.46808 58.0178 5.01808V57.0183C58.0178 57.5683 57.5678 58.0183 57.0178 58.0183H3.01758C2.46758 58.0183 2.01758 57.5683 2.01758 57.0183V39.0182C2.01758 38.4682 2.46758 38.0182 3.01758 38.0182H19.0176ZM20.0176 40.0182H4.01759V56.0183H56.0178V6.01808H39.0177V22.0181C39.0177 22.5681 38.5677 23.0181 38.0177 23.0181H21.0176V39.0182C21.0176 39.5682 20.5676 40.0182 20.0176 40.0182ZM25.0177 5.42824L3.74757 26.6983C3.35756 27.0883 2.72765 27.0883 2.33765 26.6983C1.94765 26.3083 1.94765 25.6782 2.33765 25.2882L23.6077 4.01807H14.0176C13.4676 4.01807 13.0176 3.56807 13.0176 3.01807C13.0176 2.46807 13.4676 2.01807 14.0176 2.01807H26.0177C26.2877 2.01807 26.5376 2.12811 26.7276 2.30811C26.9076 2.49811 27.0177 2.74807 27.0177 3.01807V15.0181C27.0177 15.5681 26.5677 16.0181 26.0177 16.0181C25.4677 16.0181 25.0177 15.5681 25.0177 15.0181V5.42824Z" fill="#01A5F4"/>
</g>
<defs>
<clipPath id="clip0_3684_2345">
<rect width="60" height="60" fill="white"/>
</clipPath>
</defs>
</svg>
