<svg width="60" height="60" viewBox="0 0 60 60" fill="none" xmlns="http://www.w3.org/2000/svg">
<g clip-path="url(#clip0_3673_1575)">
<mask id="mask0_3673_1575" style="mask-type:luminance" maskUnits="userSpaceOnUse" x="0" y="0" width="61" height="61">
<path d="M60.0022 0.00439453H0.00195312V60.0046H60.0022V0.00439453Z" fill="white"/>
</mask>
<g mask="url(#mask0_3673_1575)">
<path fill-rule="evenodd" clip-rule="evenodd" d="M29.009 38.1989C24.559 38.0989 20.9289 37.3085 18.6489 34.7784C16.9989 32.9484 16.009 30.1887 16.009 26.0186C16.009 25.4686 16.459 25.0186 17.009 25.0186C22.959 25.0186 27.939 26.6285 30.009 30.8985C32.079 26.6285 37.059 25.0186 43.0091 25.0186C43.5591 25.0186 44.0091 25.4686 44.0091 26.0186C44.0091 30.1887 43.0192 32.9484 41.3692 34.7784C39.0892 37.3085 35.459 38.0989 31.009 38.1989V58.0188C31.009 58.5688 30.559 59.0188 30.009 59.0188C29.459 59.0188 29.009 58.5688 29.009 58.0188V50.6286C29.009 48.5586 29.009 42.5589 29.009 38.1989ZM29.009 34.9987C28.599 29.1986 23.889 27.2287 18.029 27.0387C18.159 29.9987 18.8789 32.0486 20.1389 33.4386C22.0789 35.5986 25.219 36.1289 29.009 36.1989C29.009 35.6189 29.009 35.1987 29.009 34.9987ZM31.009 36.1989C34.799 36.1289 37.9392 35.5986 39.8792 33.4386C41.1392 32.0486 41.859 29.9987 41.989 27.0387C36.129 27.2287 31.409 29.2089 31.009 35.0089V36.1989ZM30.009 1.01855C36.629 1.01855 42.0091 6.39857 42.0091 13.0186C42.0091 19.6386 36.629 25.0186 30.009 25.0186C23.389 25.0186 18.009 19.6386 18.009 13.0186C18.009 6.39857 23.389 1.01855 30.009 1.01855ZM30.009 3.01856C24.489 3.01856 20.009 7.49858 20.009 13.0186C20.009 18.5386 24.489 23.0186 30.009 23.0186C35.529 23.0186 40.0091 18.5386 40.0091 13.0186C40.0091 7.49858 35.529 3.01856 30.009 3.01856ZM28.789 16.9088H31.229C31.619 16.9088 31.979 16.7588 32.249 16.4888C32.519 16.2088 32.679 15.8486 32.679 15.4585C32.679 15.0785 32.519 14.7085 32.249 14.4385C31.979 14.1685 31.619 14.0186 31.229 14.0186H28.789C27.869 14.0186 26.9991 13.6588 26.3491 13.0088C25.7091 12.3688 25.3391 11.4887 25.3391 10.5786C25.3391 9.65865 25.7091 8.7887 26.3491 8.1387C26.9991 7.4887 27.869 7.12844 28.789 7.12844H29.009V5.68849C29.009 5.12849 29.459 4.68849 30.009 4.68849C30.559 4.68849 31.009 5.12849 31.009 5.68849V7.12844H31.229C32.149 7.12844 33.0189 7.4887 33.6689 8.1387C34.3089 8.7887 34.679 9.65865 34.679 10.5786C34.679 11.5187 33.679 11.5787 33.679 11.5787C33.409 11.5787 33.169 11.4686 32.989 11.3086C32.819 11.1586 32.679 10.9286 32.679 10.5786C32.679 10.1886 32.519 9.82837 32.249 9.54837C31.979 9.27837 31.619 9.12845 31.229 9.12845H28.789C28.399 9.12845 28.039 9.27837 27.769 9.54837C27.499 9.82837 27.3391 10.1886 27.3391 10.5786C27.3391 10.9586 27.499 11.3287 27.769 11.5987C28.039 11.8687 28.399 12.0186 28.789 12.0186H31.229C32.149 12.0186 33.0189 12.3784 33.6689 13.0284C34.3089 13.6684 34.679 14.5485 34.679 15.4585C34.679 16.3786 34.3089 17.2485 33.6689 17.8985C33.0189 18.5485 32.149 18.9088 31.229 18.9088H31.009V20.3487C31.009 20.9087 30.559 21.3487 30.009 21.3487C29.459 21.3487 29.009 20.9087 29.009 20.3487V18.9088H28.789C27.869 18.9088 26.9991 18.5485 26.3491 17.8985C25.7091 17.2485 25.3391 16.3786 25.3391 15.4585C25.3391 14.5185 26.3391 14.4585 26.3391 14.4585C26.6091 14.4585 26.849 14.5686 27.029 14.7286C27.199 14.8786 27.3391 15.1085 27.3391 15.4585C27.3391 15.8486 27.499 16.2088 27.769 16.4888C28.039 16.7588 28.399 16.9088 28.789 16.9088ZM53.0091 20.0186C56.8691 20.0186 60.0091 23.1586 60.0091 27.0187C60.0091 30.8787 56.8691 34.0187 53.0091 34.0187C49.1491 34.0187 46.0091 30.8787 46.0091 27.0187C46.0091 23.1586 49.1491 20.0186 53.0091 20.0186ZM53.0091 22.0186C50.2491 22.0186 48.0091 24.2586 48.0091 27.0187C48.0091 29.7787 50.2491 32.0187 53.0091 32.0187C55.7691 32.0187 58.0091 29.7787 58.0091 27.0187C58.0091 24.2586 55.7691 22.0186 53.0091 22.0186ZM7.00894 20.0186C10.869 20.0186 14.009 23.1586 14.009 27.0187C14.009 30.8787 10.869 34.0187 7.00894 34.0187C3.14892 34.0187 0.00891113 30.8787 0.00891113 27.0187C0.00891113 23.1586 3.14892 20.0186 7.00894 20.0186ZM7.00894 22.0186C4.24893 22.0186 2.00892 24.2586 2.00892 27.0187C2.00892 29.7787 4.24893 32.0187 7.00894 32.0187C9.76895 32.0187 12.009 29.7787 12.009 27.0187C12.009 24.2586 9.76895 22.0186 7.00894 22.0186ZM43.0091 47.8185V58.0188C43.0091 58.5688 42.5591 59.0188 42.0091 59.0188C41.4591 59.0188 41.0091 58.5688 41.0091 58.0188V44.9689C41.0091 44.9489 41.0091 44.9289 41.0091 44.9089C41.1691 42.3688 42.069 40.5189 43.449 39.1989C45.449 37.2989 48.5191 36.5187 52.0091 36.5187C52.5591 36.5187 53.0091 36.9687 53.0091 37.5187C53.0091 41.0287 52.229 43.3586 50.939 44.8986C49.189 47.0086 46.4091 47.7085 43.0091 47.8185ZM43.0091 45.8288C45.7291 45.7488 47.989 45.3088 49.409 43.6188C50.339 42.4988 50.8691 40.8787 50.9791 38.5387C46.7091 38.7587 43.3091 40.3989 43.0091 45.009V45.8288ZM19.009 58.0188C19.009 58.5688 18.559 59.0188 18.009 59.0188C17.459 59.0188 17.009 58.5688 17.009 58.0188C17.009 58.0188 17.009 51.6485 17.009 47.8185C13.609 47.7085 10.829 47.0086 9.07901 44.8986C7.78901 43.3586 7.00894 41.0287 7.00894 37.5187C7.00894 36.9687 7.45894 36.5187 8.00894 36.5187C11.499 36.5187 14.569 37.2989 16.569 39.1989C17.949 40.5189 18.849 42.3688 19.009 44.9089C19.009 44.9289 19.009 44.9489 19.009 44.9689V58.0188ZM17.009 45.8288C17.009 45.3088 17.009 44.9987 17.009 44.9987C16.709 40.3887 13.309 38.7587 9.03897 38.5387C9.14897 40.8787 9.68904 42.4988 10.609 43.6188C12.0291 45.3088 14.289 45.7488 17.009 45.8288Z" fill="#01A5F4"/>
</g>
</g>
<defs>
<clipPath id="clip0_3673_1575">
<rect width="60" height="60" fill="white"/>
</clipPath>
</defs>
</svg>
