<svg width="60" height="60" viewBox="0 0 60 60" fill="none" xmlns="http://www.w3.org/2000/svg">
<g clip-path="url(#clip0_3684_2247)">
<path fill-rule="evenodd" clip-rule="evenodd" d="M15.0137 33.0182C18.3237 33.0182 21.0137 35.7082 21.0137 39.0182C21.0137 42.3282 18.3237 45.0182 15.0137 45.0182C11.7037 45.0182 9.01369 42.3282 9.01369 39.0182C9.01369 35.7082 11.7037 33.0182 15.0137 33.0182ZM15.0137 35.0182C12.8037 35.0182 11.0137 36.8082 11.0137 39.0182C11.0137 41.2282 12.8037 43.0182 15.0137 43.0182C17.2237 43.0182 19.0137 41.2282 19.0137 39.0182C19.0137 36.8082 17.2237 35.0182 15.0137 35.0182ZM26.0138 53.9685V57.0183C26.0138 57.5683 25.5638 58.0183 25.0138 58.0183H5.01368C4.46367 58.0183 4.01367 57.5683 4.01367 57.0183V53.9685C4.01367 52.1284 4.74371 50.3583 6.05372 49.0583C7.35372 47.7483 9.12364 47.0182 10.9636 47.0182H19.0638C20.9038 47.0182 22.6737 47.7483 23.9737 49.0583C25.2837 50.3583 26.0138 52.1284 26.0138 53.9685ZM24.0137 53.9685C24.0137 52.6584 23.4938 51.3984 22.5638 50.4684C21.6338 49.5384 20.3738 49.0182 19.0638 49.0182H10.9636C9.65364 49.0182 8.39364 49.5384 7.46364 50.4684C6.53363 51.3984 6.01368 52.6584 6.01368 53.9685V56.0183H24.0137V53.9685ZM45.0138 33.0182C48.3238 33.0182 51.0138 35.7082 51.0138 39.0182C51.0138 42.3282 48.3238 45.0182 45.0138 45.0182C41.7038 45.0182 39.0138 42.3282 39.0138 39.0182C39.0138 35.7082 41.7038 33.0182 45.0138 33.0182ZM45.0138 35.0182C42.8038 35.0182 41.0138 36.8082 41.0138 39.0182C41.0138 41.2282 42.8038 43.0182 45.0138 43.0182C47.2238 43.0182 49.0138 41.2282 49.0138 39.0182C49.0138 36.8082 47.2238 35.0182 45.0138 35.0182ZM56.0139 53.9685V57.0183C56.0139 57.5683 55.5639 58.0183 55.0139 58.0183H35.0138C34.4638 58.0183 34.0138 57.5683 34.0138 57.0183V53.9685C34.0138 52.1284 34.7438 50.3583 36.0538 49.0583C37.3538 47.7483 39.1238 47.0182 40.9638 47.0182H49.0639C50.9039 47.0182 52.6738 47.7483 53.9738 49.0583C55.2838 50.3583 56.0139 52.1284 56.0139 53.9685ZM54.0139 53.9685C54.0139 52.6584 53.4939 51.3984 52.5639 50.4684C51.6339 49.5384 50.3739 49.0182 49.0639 49.0182H40.9638C39.6538 49.0182 38.3937 49.5384 37.4637 50.4684C36.5337 51.3984 36.0138 52.6584 36.0138 53.9685V56.0183H54.0139V53.9685ZM15.0137 2.01807C18.3237 2.01807 21.0137 4.70808 21.0137 8.01809C21.0137 11.3281 18.3237 14.0181 15.0137 14.0181C11.7037 14.0181 9.01369 11.3281 9.01369 8.01809C9.01369 4.70808 11.7037 2.01807 15.0137 2.01807ZM15.0137 4.01807C12.8037 4.01807 11.0137 5.80808 11.0137 8.01809C11.0137 10.2281 12.8037 12.0181 15.0137 12.0181C17.2237 12.0181 19.0137 10.2281 19.0137 8.01809C19.0137 5.80808 17.2237 4.01807 15.0137 4.01807ZM26.0138 22.9683V26.0182C26.0138 26.5682 25.5638 27.0182 25.0138 27.0182H5.01368C4.46367 27.0182 4.01367 26.5682 4.01367 26.0182V22.9683C4.01367 21.1283 4.74371 19.3582 6.05372 18.0582C7.35372 16.7482 9.12364 16.0181 10.9636 16.0181H19.0638C20.9038 16.0181 22.6737 16.7482 23.9737 18.0582C25.2837 19.3582 26.0138 21.1283 26.0138 22.9683ZM24.0137 22.9683C24.0137 21.6583 23.4938 20.3983 22.5638 19.4683C21.6338 18.5383 20.3738 18.0181 19.0638 18.0181H10.9636C9.65364 18.0181 8.39364 18.5383 7.46364 19.4683C6.53363 20.3983 6.01368 21.6583 6.01368 22.9683V25.0182H24.0137V22.9683ZM45.0138 2.01807C48.3238 2.01807 51.0138 4.70808 51.0138 8.01809C51.0138 11.3281 48.3238 14.0181 45.0138 14.0181C41.7038 14.0181 39.0138 11.3281 39.0138 8.01809C39.0138 4.70808 41.7038 2.01807 45.0138 2.01807ZM45.0138 4.01807C42.8038 4.01807 41.0138 5.80808 41.0138 8.01809C41.0138 10.2281 42.8038 12.0181 45.0138 12.0181C47.2238 12.0181 49.0138 10.2281 49.0138 8.01809C49.0138 5.80808 47.2238 4.01807 45.0138 4.01807ZM56.0139 22.9683V26.0182C56.0139 26.5682 55.5639 27.0182 55.0139 27.0182H35.0138C34.4638 27.0182 34.0138 26.5682 34.0138 26.0182V22.9683C34.0138 21.1283 34.7438 19.3582 36.0538 18.0582C37.3538 16.7482 39.1238 16.0181 40.9638 16.0181H49.0639C50.9039 16.0181 52.6738 16.7482 53.9738 18.0582C55.2838 19.3582 56.0139 21.1283 56.0139 22.9683ZM54.0139 22.9683C54.0139 21.6583 53.4939 20.3983 52.5639 19.4683C51.6339 18.5383 50.3739 18.0181 49.0639 18.0181H40.9638C39.6538 18.0181 38.3937 18.5383 37.4637 19.4683C36.5337 20.3983 36.0138 21.6583 36.0138 22.9683V25.0182H54.0139V22.9683Z" fill="#01A5F4"/>
</g>
<defs>
<clipPath id="clip0_3684_2247">
<rect width="60" height="60" fill="white"/>
</clipPath>
</defs>
</svg>
