<svg width="60" height="60" viewBox="0 0 60 60" fill="none" xmlns="http://www.w3.org/2000/svg">
<g clip-path="url(#clip0_3684_2358)">
<path fill-rule="evenodd" clip-rule="evenodd" d="M30.0108 15.0181C33.3209 15.0181 36.0109 17.7081 36.0109 21.0181C36.0109 24.3281 33.3209 27.0182 30.0108 27.0182C26.7008 27.0182 24.0108 24.3281 24.0108 21.0181C24.0108 17.7081 26.7008 15.0181 30.0108 15.0181ZM30.0108 17.0181C27.8008 17.0181 26.0108 18.8081 26.0108 21.0181C26.0108 23.2281 27.8008 25.0182 30.0108 25.0182C32.2209 25.0182 34.0109 23.2281 34.0109 21.0181C34.0109 18.8081 32.2209 17.0181 30.0108 17.0181ZM41.0109 35.9684V39.0182C41.0109 39.5682 40.5609 40.0182 40.0109 40.0182H20.0108C19.4608 40.0182 19.0108 39.5682 19.0108 39.0182V35.9684C19.0108 34.1284 19.7408 32.3582 21.0509 31.0582C22.3509 29.7482 24.1208 29.0182 25.9608 29.0182H34.0609C35.9009 29.0182 37.6708 29.7482 38.9708 31.0582C40.2808 32.3582 41.0109 34.1284 41.0109 35.9684ZM39.0109 35.9684C39.0109 34.6584 38.4909 33.3984 37.5609 32.4684C36.6309 31.5384 35.3709 31.0182 34.0609 31.0182H25.9608C24.6508 31.0182 23.3908 31.5384 22.4608 32.4684C21.5308 33.3984 21.0108 34.6584 21.0108 35.9684V38.0182H39.0109V35.9684ZM4.01075 54.6081L15.6009 43.0182C15.9909 42.6282 16.6208 42.6282 17.0108 43.0182C17.4008 43.4082 17.4008 44.0384 17.0108 44.4284L5.42067 56.0183H15.0108C15.5608 56.0183 16.0108 56.4683 16.0108 57.0183C16.0108 57.5683 15.5608 58.0183 15.0108 58.0183H3.01075C2.74074 58.0183 2.49078 57.9082 2.30078 57.7282C2.12078 57.5382 2.01074 57.2883 2.01074 57.0183V45.0182C2.01074 44.4682 2.46074 44.0182 3.01075 44.0182C3.56075 44.0182 4.01075 44.4682 4.01075 45.0182V54.6081ZM56.0109 54.6081V45.0182C56.0109 44.4682 56.4609 44.0182 57.0109 44.0182C57.5609 44.0182 58.0109 44.4682 58.0109 45.0182V57.0183C58.0109 57.2883 57.9009 57.5382 57.7209 57.7282C57.5309 57.9082 57.2809 58.0183 57.0109 58.0183H45.0109C44.4609 58.0183 44.0109 57.5683 44.0109 57.0183C44.0109 56.4683 44.4609 56.0183 45.0109 56.0183H54.601L43.101 44.5182C42.711 44.1282 42.711 43.4981 43.101 43.1081C43.491 42.7181 44.1209 42.7181 44.5109 43.1081L56.0109 54.6081ZM4.01075 5.42824V15.0181C4.01075 15.5681 3.56075 16.0181 3.01075 16.0181C2.46074 16.0181 2.01074 15.5681 2.01074 15.0181V3.01807C2.01074 2.74807 2.12078 2.49811 2.30078 2.30811C2.49078 2.12811 2.74074 2.01807 3.01075 2.01807H15.0108C15.5608 2.01807 16.0108 2.46807 16.0108 3.01807C16.0108 3.56807 15.5608 4.01807 15.0108 4.01807H5.42067L17.0108 15.608C17.4008 15.998 17.4008 16.6281 17.0108 17.0181C16.6208 17.4081 15.9909 17.4081 15.6009 17.0181L4.01075 5.42824ZM56.0109 5.42824L44.5109 16.9283C44.1209 17.3183 43.491 17.3183 43.101 16.9283C42.711 16.5383 42.711 15.9081 43.101 15.5181L54.601 4.01807H45.0109C44.4609 4.01807 44.0109 3.56807 44.0109 3.01807C44.0109 2.46807 44.4609 2.01807 45.0109 2.01807H57.0109C57.2809 2.01807 57.5309 2.12811 57.7209 2.30811C57.9009 2.49811 58.0109 2.74807 58.0109 3.01807V15.0181C58.0109 15.5681 57.5609 16.0181 57.0109 16.0181C56.4609 16.0181 56.0109 15.5681 56.0109 15.0181V5.42824Z" fill="#01A5F4"/>
</g>
<defs>
<clipPath id="clip0_3684_2358">
<rect width="60" height="60" fill="white"/>
</clipPath>
</defs>
</svg>
