<svg width="60" height="60" viewBox="0 0 60 60" fill="none" xmlns="http://www.w3.org/2000/svg">
<g clip-path="url(#clip0_3684_2239)">
<path fill-rule="evenodd" clip-rule="evenodd" d="M56.0144 16.0186C56.0144 22.6486 50.6443 28.0186 44.0143 28.0186H16.0142C9.38418 28.0186 4.01416 22.6486 4.01416 16.0186C4.01416 9.38857 9.38418 4.01855 16.0142 4.01855H44.0143C50.6443 4.01855 56.0144 9.38857 56.0144 16.0186ZM54.0143 16.0186C54.0143 10.4986 49.5343 6.01856 44.0143 6.01856H16.0142C10.4942 6.01856 6.01417 10.4986 6.01417 16.0186C6.01417 21.5386 10.4942 26.0186 16.0142 26.0186H44.0143C49.5343 26.0186 54.0143 21.5386 54.0143 16.0186ZM16.0142 8.01857C20.4242 8.01857 24.0142 11.6086 24.0142 16.0186C24.0142 20.4286 20.4242 24.0186 16.0142 24.0186C11.6042 24.0186 8.01417 20.4286 8.01417 16.0186C8.01417 11.6086 11.6042 8.01857 16.0142 8.01857ZM16.0142 10.0186C12.7042 10.0186 10.0142 12.7086 10.0142 16.0186C10.0142 19.3286 12.7042 22.0186 16.0142 22.0186C19.3242 22.0186 22.0142 19.3286 22.0142 16.0186C22.0142 12.7086 19.3242 10.0186 16.0142 10.0186ZM4.01416 44.0187C4.01416 37.3887 9.38418 32.0187 16.0142 32.0187H44.0143C50.6443 32.0187 56.0144 37.3887 56.0144 44.0187C56.0144 50.6487 50.6443 56.0187 44.0143 56.0187H16.0142C9.38418 56.0187 4.01416 50.6487 4.01416 44.0187ZM6.01417 44.0187C6.01417 49.5387 10.4942 54.0187 16.0142 54.0187H44.0143C49.5343 54.0187 54.0143 49.5387 54.0143 44.0187C54.0143 38.4987 49.5343 34.0187 44.0143 34.0187H16.0142C10.4942 34.0187 6.01417 38.4987 6.01417 44.0187ZM44.0143 52.0187C39.6043 52.0187 36.0143 48.4287 36.0143 44.0187C36.0143 39.6087 39.6043 36.0187 44.0143 36.0187C48.4243 36.0187 52.0143 39.6087 52.0143 44.0187C52.0143 48.4287 48.4243 52.0187 44.0143 52.0187ZM44.0143 50.0187C47.3243 50.0187 50.0143 47.3287 50.0143 44.0187C50.0143 40.7087 47.3243 38.0187 44.0143 38.0187C40.7043 38.0187 38.0143 40.7087 38.0143 44.0187C38.0143 47.3287 40.7043 50.0187 44.0143 50.0187Z" fill="#01A5F4"/>
</g>
<defs>
<clipPath id="clip0_3684_2239">
<rect width="60" height="60" fill="white"/>
</clipPath>
</defs>
</svg>
