<svg width="60" height="60" viewBox="0 0 60 60" fill="none" xmlns="http://www.w3.org/2000/svg">
<g clip-path="url(#clip0_3684_2259)">
<path fill-rule="evenodd" clip-rule="evenodd" d="M51.0089 12.0186V54.509C51.0089 56.999 48.9889 59.0188 46.4989 59.0188H13.5188C11.0288 59.0188 9.00879 56.999 9.00879 54.509V5.52834C9.00879 3.03833 11.0288 1.01855 13.5188 1.01855H39.0089C39.2589 1.01855 39.4988 1.11832 39.6788 1.27832L50.6789 11.2784C50.8889 11.4684 51.0089 11.7286 51.0089 12.0186ZM38.0089 3.01856H13.5188C12.1288 3.01856 11.0088 4.13833 11.0088 5.52834V54.509C11.0088 55.899 12.1288 57.0188 13.5188 57.0188H46.4989C47.8889 57.0188 49.0089 55.899 49.0089 54.509V13.0186H42.1388C39.8588 13.0186 38.0089 11.1687 38.0089 8.8887V3.01856ZM47.4188 11.0186L40.0089 4.27833V8.8887C40.0089 10.0687 40.9588 11.0186 42.1388 11.0186H47.4188ZM31.0089 13.0186V25.0186H43.0089C43.5589 25.0186 44.0089 25.4686 44.0089 26.0186C44.0089 33.7487 37.7389 40.0187 30.0089 40.0187C22.2788 40.0187 16.0088 33.7487 16.0088 26.0186C16.0088 18.2886 22.2788 12.0186 30.0089 12.0186C30.5589 12.0186 31.0089 12.4686 31.0089 13.0186ZM29.0089 14.0586C22.8488 14.5686 18.0088 19.7286 18.0088 26.0186C18.0088 32.6387 23.3888 38.0187 30.0089 38.0187C36.2989 38.0187 41.4589 33.1787 41.9689 27.0187H30.0089C29.4589 27.0187 29.0089 26.5686 29.0089 26.0186V14.0586ZM16.0088 47.0187C15.4588 47.0187 15.0088 46.5687 15.0088 46.0187C15.0088 45.4687 15.4588 45.0187 16.0088 45.0187H44.0089C44.5589 45.0187 45.0089 45.4687 45.0089 46.0187C45.0089 46.5687 44.5589 47.0187 44.0089 47.0187H16.0088ZM16.0088 51.0187C15.4588 51.0187 15.0088 50.5687 15.0088 50.0187C15.0088 49.4687 15.4588 49.0187 16.0088 49.0187H36.0089C36.5589 49.0187 37.0089 49.4687 37.0089 50.0187C37.0089 50.5687 36.5589 51.0187 36.0089 51.0187H16.0088Z" fill="#01A5F4"/>
</g>
<defs>
<clipPath id="clip0_3684_2259">
<rect width="60" height="60" fill="white"/>
</clipPath>
</defs>
</svg>
