<svg width="140" height="140" viewBox="0 0 140 140" fill="none" xmlns="http://www.w3.org/2000/svg">
<g clip-path="url(#clip0_3649_552)">
<path fill-rule="evenodd" clip-rule="evenodd" d="M63.2051 62.0347L62.2687 62.5808H2.98828V106.22C2.99483 106.991 3.41386 107.702 4.08177 108.087C5.4045 108.85 38.2632 127.769 45.4335 131.9C47.2735 132.958 49.539 132.951 51.366 131.883C65.1236 123.854 122.728 90.2318 137.075 81.856C137.736 81.471 138.142 80.7684 138.155 80.0055V36.3665H63.2051V62.0347Z" fill="#001127" stroke="#01A5F4" stroke-width="1.99719" stroke-miterlimit="1.5" stroke-linecap="round" stroke-linejoin="round"/>
<path fill-rule="evenodd" clip-rule="evenodd" d="M137.086 38.3788C137.758 37.9869 138.17 37.267 138.167 36.4893C138.165 35.7119 137.749 34.9944 137.075 34.6063C128.282 29.5429 104.168 15.6575 95.7204 10.7934C93.8835 9.73573 91.6205 9.74229 89.7898 10.8109C76.0351 18.8393 18.4316 52.4618 4.08236 60.8372C3.41078 61.2292 2.99922 61.9494 3.00104 62.7268C3.00351 63.5046 3.41936 64.2218 4.09336 64.6099C12.8866 69.6732 37.0007 83.5586 45.4479 88.4227C47.2854 89.4808 49.5478 89.4739 51.3785 88.4053C65.1332 80.3768 122.737 46.7544 137.086 38.3788Z" fill="#001127" stroke="#01A5F4" stroke-width="1.59847" stroke-miterlimit="1.5" stroke-linecap="round" stroke-linejoin="round"/>
<path d="M118.392 31.3955C118.597 31.243 118.712 30.9971 118.695 30.7414C118.679 30.4864 118.534 30.2566 118.31 30.1312C115.115 28.3335 105.818 23.1323 103.035 21.5753C102.535 21.2959 101.928 21.2876 101.421 21.5524C96.697 23.8573 89.6854 23.8906 84.7461 21.6664C84.042 21.3359 83.222 21.3709 82.5489 21.7593C74.8814 26.1719 29.8207 52.3781 22.5912 56.5495C22.3897 56.6663 22.2624 56.8775 22.2534 57.1097C22.2445 57.3419 22.3546 57.5618 22.5455 57.6938C26.5017 60.3991 26.6575 64.2855 22.9453 67.0139C22.7397 67.1656 22.6255 67.4123 22.6426 67.6672C22.6589 67.9229 22.8033 68.1528 23.0269 68.2774C26.2218 70.0751 35.3743 75.2959 38.1565 76.8529C38.6566 77.1324 39.2636 77.1407 39.7711 76.8759C44.495 74.5709 51.5066 74.5368 56.4459 76.7618C57.15 77.0916 57.9699 77.0566 58.643 76.6682C66.3106 72.2556 111.517 46.0305 118.747 41.8591C118.947 41.743 119.075 41.5319 119.085 41.2997C119.094 41.0675 118.983 40.8467 118.792 40.7147C114.835 38.0095 114.68 34.1222 118.392 31.3955Z" fill="#001127" stroke="#01A5F4" stroke-width="2.00909" stroke-miterlimit="2" stroke-linejoin="round"/>
<path d="M49.9452 60.303C48.087 59.2315 45.1239 59.2278 43.3272 60.295C41.5311 61.3621 41.5811 63.0961 43.4393 64.1669C45.2976 65.2384 48.2606 65.2421 50.0567 64.175C51.8534 63.1079 51.8035 61.3739 49.9452 60.303Z" fill="#001127" stroke="#01A5F4" stroke-width="2.01008" stroke-miterlimit="2" stroke-linejoin="round"/>
<path d="M99.7118 32.0916C97.8536 31.0201 94.8905 31.0164 93.0938 32.0835C91.2977 33.1506 91.3477 34.8846 93.2059 35.9555C95.0642 37.027 98.0272 37.0307 99.8233 35.9636C101.62 34.8965 101.57 33.1625 99.7118 32.0916Z" fill="#001127" stroke="#01A5F4" stroke-width="2.01008" stroke-miterlimit="2" stroke-linejoin="round"/>
<path d="M83.5597 52.5848C84.1934 52.1345 84.7324 51.6605 85.1764 51.1641C85.7287 50.5484 86.069 49.9191 86.1996 49.274C86.3301 48.6312 86.1996 47.982 85.8079 47.3264C85.4152 46.6709 84.6788 46.031 83.5976 45.4079C82.6682 44.8725 81.7287 44.4968 80.7803 44.283C79.832 44.0691 78.8646 43.9838 77.8772 44.0259C76.8897 44.069 75.8632 44.2231 74.7988 44.4891C73.7333 44.755 72.6008 45.0897 71.3991 45.4921L70.2912 45.8834L68.6008 46.4222C67.7495 46.6828 67.0265 46.8293 66.4307 46.8608C65.8349 46.8935 65.2993 46.7727 64.8251 46.4995C63.8388 45.9312 63.9303 45.2319 65.1007 44.4036C65.1007 44.4036 65.5883 44.0295 66.4217 43.652C67.2552 43.2756 67.6479 43.1636 68.333 42.9671C69.017 42.7719 69.6652 42.6082 70.2767 42.4783C70.8892 42.3484 71.4136 42.2529 71.8499 42.1939C71.9737 42.1771 72.0842 42.1626 72.1835 42.1516C72.2962 42.1405 72.3944 42.0748 72.4468 41.975C72.4992 41.8751 72.4981 41.7558 72.4435 41.657C72.1054 41.0455 71.5073 39.968 71.1369 39.3C70.9417 38.9471 70.5433 38.7558 70.1461 38.8255C69.1006 39.0109 67.9693 39.2564 66.7509 39.5595C65.4912 39.8743 64.2951 40.2866 63.1626 40.7976C63.0053 40.8683 60.9914 39.9498 60.14 39.5543C59.8968 39.4562 59.6223 39.4768 59.3958 39.6107C59.0366 39.8117 58.5066 40.1282 58.1395 40.3449C58.0525 40.3971 57.9956 40.4891 57.9878 40.5908C57.9799 40.6913 58.0212 40.7913 58.0982 40.8563C58.8558 41.3365 60.4257 42.3899 60.3454 42.4543C59.7138 42.9559 59.205 43.4786 58.8212 44.0202C58.3727 44.6528 58.144 45.2944 58.135 45.9427C58.1261 46.5933 58.3403 47.2372 58.7788 47.8755C59.2173 48.515 59.9292 49.1183 60.9155 49.6877C61.6742 50.1243 62.4441 50.4448 63.224 50.648C64.0039 50.8512 64.8273 50.9502 65.6954 50.945C66.5623 50.941 67.4929 50.8381 68.4848 50.6376C69.4767 50.437 70.5645 50.1518 71.7472 49.7821L73.4666 49.2273L75.186 48.705C76.0551 48.4555 76.8205 48.2951 77.4811 48.225C78.1416 48.1549 78.7173 48.2619 79.2105 48.5461C80.16 49.0935 79.9558 49.8018 78.6013 50.6742C78.6013 50.6742 77.8716 51.1165 77.2512 51.4094C76.6298 51.7011 75.697 52.0372 74.8557 52.282C74.0144 52.5268 73.2278 52.7276 72.4948 52.8854C71.7628 53.0421 71.1269 53.1533 70.588 53.2188C70.4028 53.2407 70.2387 53.2591 70.0981 53.2716C69.9776 53.2806 69.8694 53.352 69.8136 53.4585C69.7578 53.5662 69.7623 53.6944 69.8237 53.7987C70.2131 54.4565 70.897 55.6113 71.2987 56.2868C71.4917 56.6141 71.8633 56.7934 72.2404 56.7428C73.7031 56.5388 75.1592 56.2199 76.6086 55.7872C78.0267 55.3638 79.3444 54.8688 80.5605 54.3046C80.7223 54.2294 83.0966 55.3452 84.0383 55.7945C84.2849 55.8992 84.565 55.8797 84.7948 55.7436C85.1563 55.5403 85.6863 55.2238 86.0512 55.0082C86.1382 54.956 86.1951 54.8651 86.204 54.7635C86.2118 54.6619 86.1717 54.563 86.0936 54.4968C85.2735 53.9514 83.4403 52.6696 83.5597 52.5848Z" fill="#001127" stroke="#01A5F4" stroke-width="2.00952" stroke-miterlimit="2" stroke-linejoin="round"/>
<path d="M2.99376 69.4572C2.92376 70.6672 3.33375 71.6272 4.48375 72.2272C4.48375 72.2272 36.8637 90.9872 46.0737 96.3272C47.5737 97.1972 49.4135 97.1869 50.9035 96.3169C65.0935 88.027 136.993 46.0373 136.993 46.0373C137.693 45.5973 138.113 44.9271 138.163 43.9871" stroke="#01A5F4" stroke-width="1.99999" stroke-miterlimit="1.5" stroke-linecap="round" stroke-linejoin="round"/>
<path d="M2.99376 76.4684C2.92376 77.6784 3.33375 78.6384 4.48375 79.2384C4.48375 79.2384 36.8637 97.9984 46.0737 103.338C47.5737 104.208 49.4135 104.198 50.9035 103.328C65.0935 95.0382 136.993 53.0486 136.993 53.0486C137.693 52.6086 138.113 51.9383 138.163 50.9983" stroke="#01A5F4" stroke-width="1.99999" stroke-miterlimit="1.5" stroke-linecap="round" stroke-linejoin="round"/>
<path d="M2.99376 83.4569C2.92376 84.6669 3.33375 85.6269 4.48375 86.2269C4.48375 86.2269 36.8637 104.987 46.0737 110.327C47.5737 111.197 49.4135 111.187 50.9035 110.317C65.0935 102.027 136.993 60.0371 136.993 60.0371C137.693 59.5971 138.113 58.9268 138.163 57.9868" stroke="#01A5F4" stroke-width="1.99999" stroke-miterlimit="1.5" stroke-linecap="round" stroke-linejoin="round"/>
<path d="M2.99376 90.4682C2.92376 91.6782 3.33375 92.6382 4.48375 93.2382C4.48375 93.2382 36.8637 111.998 46.0737 117.338C47.5737 118.208 49.4135 118.198 50.9035 117.328C65.0935 109.038 136.993 67.0483 136.993 67.0483C137.693 66.6083 138.113 65.938 138.163 64.998" stroke="#01A5F4" stroke-width="1.99999" stroke-miterlimit="1.5" stroke-linecap="round" stroke-linejoin="round"/>
<path d="M2.99376 97.9677C2.92376 99.1777 3.33375 100.138 4.48375 100.738C4.48375 100.738 36.8637 119.498 46.0737 124.838C47.5737 125.708 49.4135 125.697 50.9035 124.827C65.0935 116.537 136.993 74.5478 136.993 74.5478C137.693 74.1078 138.113 73.4376 138.163 72.4976" stroke="#01A5F4" stroke-width="1.99999" stroke-miterlimit="1.5" stroke-linecap="round" stroke-linejoin="round"/>
</g>
<defs>
<clipPath id="clip0_3649_552">
<rect width="140" height="140" fill="white"/>
</clipPath>
</defs>
</svg>
