<svg width="140" height="140" viewBox="0 0 140 140" fill="none" xmlns="http://www.w3.org/2000/svg">
<g clip-path="url(#clip0_3645_489)">
<g clip-path="url(#clip1_3645_489)">
<path d="M41.4674 3.45839C41.5381 3.45839 42.3864 3.52908 42.457 3.52908C42.5984 3.52908 43.6588 3.59977 43.6588 3.59977C43.8709 3.59977 44.7899 3.74116 44.9313 3.74116L45.7089 3.88253C45.9209 3.95322 46.4865 4.02392 46.4865 4.02392C46.6986 4.09461 47.2641 4.236 47.2641 4.236C47.4762 4.30669 48.5366 4.58945 48.5366 4.58945C48.6779 4.58945 50.0918 5.0843 50.1625 5.0843C50.2332 5.15499 51.5763 5.57914 51.5763 5.64983C51.7884 5.72053 52.7074 6.07398 52.7781 6.14468C52.9194 6.21537 53.9091 6.63952 53.9798 6.71021C54.1212 6.7809 55.1109 7.20506 55.1109 7.27575C55.323 7.34644 56.3127 7.91198 56.3833 7.91198C56.5954 8.05336 56.7368 8.12405 56.9489 8.26543C57.2317 8.40681 57.9386 8.83097 58.08 8.90166C58.2213 9.04305 58.7869 9.3965 58.9283 9.46719C59.0696 9.53788 59.6352 9.96204 59.7766 10.0327C59.9179 10.1034 60.4835 10.5276 60.5542 10.5983C60.7662 10.7396 61.3318 11.0931 61.4025 11.1638C61.6852 11.3759 62.3215 11.8 62.3922 11.8707C62.6042 12.0121 63.1698 12.507 63.3112 12.5776C63.4525 12.719 64.4422 13.4966 64.5836 13.638C64.725 13.7087 65.5733 14.4863 65.7147 14.557C65.9268 14.7691 66.4216 15.1932 66.4216 15.2639C66.7044 15.476 67.3406 16.1122 67.4113 16.1829C67.6234 16.3243 68.8958 17.5261 68.8958 17.5968C69.1786 17.8088 69.6734 18.3744 69.7441 18.4451C69.9562 18.6571 70.451 19.152 70.451 19.152C70.6631 19.4348 71.2286 20.0003 71.2993 20.071C71.5114 20.3537 72.4304 21.4141 72.5011 21.4848C72.6425 21.6262 73.4908 22.6159 73.6322 22.7573C73.7029 22.8987 74.5512 23.959 74.6925 24.1004C74.8339 24.2418 75.6115 25.3022 75.6822 25.3729C75.8943 25.6556 76.3185 26.2919 76.3891 26.2919C76.5305 26.5746 77.5202 27.9178 77.5909 27.9885C77.6616 28.1299 78.2978 29.1195 78.3685 29.1902C78.5806 29.473 79.641 31.1696 79.7117 31.2403C79.8531 31.4524 80.2065 32.0886 80.2772 32.1593C80.4893 32.4421 81.479 34.1387 81.5497 34.2094C81.691 34.4921 81.9738 35.0577 82.0445 35.1284C82.1859 35.4111 82.8221 36.5422 82.8928 36.6836C82.9635 36.7543 83.6704 38.2388 83.7411 38.3095C83.8825 38.5923 84.3066 39.5112 84.3773 39.6526C84.448 39.794 85.2256 41.4199 85.2256 41.4906C85.367 41.7734 85.7205 42.6217 85.7205 42.6217C85.8619 42.9045 86.1446 43.5407 86.1446 43.6114C86.286 43.8941 86.5688 44.6011 86.6395 44.6718C86.7102 44.9545 86.9929 45.7321 86.9929 45.7321C87.1343 46.0149 87.4171 46.7925 87.4171 46.8632C87.5585 47.146 87.7705 47.8529 87.8412 47.9236C87.9119 48.2064 88.1947 48.984 88.1947 48.984C88.2654 49.3374 88.5482 50.0443 88.5482 50.115C88.6188 50.3978 88.9016 51.1754 88.9016 51.2461C88.9723 51.4582 89.3258 52.8013 89.3965 52.9427C89.3965 53.0841 89.7499 54.2859 89.7499 54.4272C89.8206 54.6393 89.962 55.3462 90.0327 55.4169C90.0327 55.6997 90.2448 56.548 90.2448 56.548C90.3155 56.8308 90.4568 57.5377 90.4568 57.6084C90.5275 57.8911 90.6689 58.6687 90.6689 58.6687C90.7396 59.0222 90.8103 59.7291 90.881 59.7998C90.881 60.0826 91.0224 61.143 91.0931 61.355C91.0931 61.4257 91.2344 62.8396 91.2344 62.981C91.3051 63.2637 91.3758 64.0413 91.3758 64.0413C91.3758 64.3241 91.4465 65.1017 91.4465 65.2431C91.4465 65.4552 91.4465 66.0914 91.5172 66.2328C91.5172 66.4449 91.5172 67.0811 91.5172 67.1518C91.5172 67.5052 91.5172 67.788 91.5172 68.1415C91.5172 79.028 87.6292 86.7334 81.4083 90.3387L69.9562 97.0544C76.1771 93.3785 80.0651 85.7437 80.0651 74.7865C80.0651 74.433 80.0651 73.6554 80.0651 73.514C80.0651 73.302 80.0651 72.6657 79.9944 72.5244C79.9944 72.3123 79.9944 71.6761 79.9944 71.5347C79.9237 71.2519 79.9237 70.6157 79.9237 70.6157C79.8531 70.2622 79.7824 69.4139 79.7824 69.3432C79.7824 69.0605 79.7117 68.4242 79.641 68.2828C79.641 68.0001 79.5703 67.4345 79.5703 67.4345C79.4996 67.0811 79.3582 66.3035 79.3582 66.3035C79.3582 65.95 79.2168 65.2431 79.2168 65.1724C79.1461 64.8896 79.0047 64.112 79.0047 64.112C78.9341 63.7586 78.722 62.9103 78.722 62.8396C78.6513 62.5568 78.3685 61.2843 78.2978 61.0723C78.2978 60.9309 77.9444 59.7291 77.9444 59.5877C77.8737 59.3757 77.3788 57.6791 77.3788 57.6084C77.3081 57.3256 77.0961 56.6187 77.0254 56.548C76.9547 56.2652 76.6719 55.4169 76.6719 55.3462C76.5305 55.0635 76.3185 54.3565 76.2478 54.2859C76.1771 54.0031 75.965 53.3669 75.8943 53.2962C75.8236 52.9427 75.4702 52.2358 75.4702 52.1651C75.3995 51.8823 75.1167 51.1754 75.046 51.1047C74.9753 50.822 74.6925 50.1857 74.6219 50.115C74.5512 49.7616 74.1977 48.984 74.127 48.9133C74.0563 48.7012 73.7029 47.9943 73.7029 47.9236C73.5615 47.5701 73.208 46.8632 73.208 46.8632C73.0666 46.5804 72.7132 45.8735 72.7132 45.8028C72.5718 45.5201 72.2183 44.8838 72.2183 44.8131C72.0769 44.5304 71.6528 43.7528 71.5821 43.6821C71.5114 43.3993 71.158 42.7631 71.0873 42.6924C70.9459 42.4096 70.5217 41.7027 70.5217 41.632C70.3803 41.3492 69.9562 40.713 69.9562 40.6423C69.7441 40.3596 69.3907 39.7233 69.3907 39.7233C69.1786 39.3699 68.7544 38.6629 68.6837 38.5923C68.5424 38.3095 68.1889 37.6733 68.1182 37.6026C67.9061 37.3198 67.5527 36.7543 67.5527 36.7543C67.3406 36.4008 66.8457 35.6939 66.7751 35.5525C66.6337 35.3404 66.2095 34.7749 66.1388 34.6335C65.9974 34.4921 65.5733 33.8559 65.5026 33.7852C65.2905 33.5024 64.8664 32.9369 64.8664 32.8662C64.6543 32.5834 64.0888 31.8765 64.0181 31.7351C63.8767 31.5938 63.0284 30.4627 62.887 30.3213C62.7456 30.1799 61.968 29.1195 61.8266 28.9782C61.6852 28.8368 60.5542 27.4936 60.4835 27.4936C60.2714 27.2109 59.7059 26.6453 59.7059 26.5746C59.4938 26.2919 58.9989 25.797 58.9989 25.797C58.7162 25.5849 58.2213 25.0194 58.1506 24.9487C57.9386 24.7366 57.373 24.1711 57.373 24.1004C57.161 23.959 56.5954 23.3935 56.5247 23.3228C56.3833 23.1814 55.8178 22.6866 55.7471 22.6159C55.535 22.4038 54.8988 21.8383 54.8988 21.7676C54.6867 21.6262 54.0505 21.0607 53.9798 20.99C53.7677 20.8486 52.8488 20.0003 52.6367 19.8589C52.566 19.7882 51.647 19.0813 51.5763 19.0106C51.3642 18.8692 50.7987 18.4451 50.728 18.3744C50.5159 18.1623 49.809 17.6675 49.7383 17.6675C49.5262 17.5261 48.9607 17.1019 48.8193 17.0312C48.6779 16.8898 48.1124 16.5364 47.971 16.4657C47.8296 16.3243 47.2641 15.9708 47.1934 15.9002C46.9813 15.7588 46.4158 15.476 46.3451 15.4053C46.0623 15.1932 45.7796 15.0519 45.4968 14.9105C45.2847 14.7691 44.295 14.2036 44.2243 14.2036C44.0123 14.0622 43.0226 13.5673 42.9519 13.5673C42.8105 13.4966 41.8208 13.0018 41.7501 12.9311C41.6087 12.9311 40.6897 12.5069 40.6191 12.5069C40.4777 12.4363 39.0638 11.8707 38.9931 11.8707C38.9225 11.8 38.0742 11.5173 38.0742 11.5173C37.9328 11.4466 36.5896 11.0931 36.5189 11.0931C36.3069 11.0224 35.7413 10.881 35.7413 10.881C35.5292 10.8103 34.9637 10.669 34.9637 10.669C34.7516 10.669 34.2568 10.5276 34.2568 10.5276C33.974 10.5276 33.4792 10.4569 33.4792 10.4569C33.3378 10.3862 32.2067 10.2448 32.136 10.2448C31.9947 10.2448 30.9343 10.1741 30.8636 10.1741C30.7222 10.1741 29.7325 10.1741 29.7325 10.1741C29.5204 10.1741 28.6014 10.1741 28.6014 10.1741C28.3894 10.1741 27.5411 10.2448 27.5411 10.3155C27.329 10.3155 26.4807 10.4569 26.4807 10.4569C26.3393 10.4569 25.491 10.669 25.491 10.669C25.3496 10.669 24.572 10.881 24.572 10.881C24.4306 10.9517 23.653 11.1638 23.653 11.1638C23.5116 11.2345 22.734 11.5173 22.734 11.5173C22.5926 11.5879 21.8857 11.9414 21.815 11.9414C21.6736 12.0121 20.896 12.4363 20.8253 12.5069L32.2774 5.86191C32.3481 5.79122 33.3378 5.29637 33.3378 5.22568C33.4792 5.22568 34.2568 4.87222 34.2568 4.87222C34.3982 4.80153 35.1051 4.51876 35.1758 4.51876C35.2465 4.44807 36.0241 4.236 36.0241 4.236C36.1655 4.16531 37.0138 3.95323 37.0138 3.95323C37.1552 3.95323 38.0035 3.74116 38.0035 3.74116C38.2155 3.74116 39.0638 3.59977 39.0638 3.59977C39.2052 3.59977 40.1242 3.52908 40.1242 3.52908C40.2656 3.52908 41.4674 3.45839 41.4674 3.45839Z" fill="#001127" stroke="#01A5F4" stroke-width="2.12076" stroke-miterlimit="2" stroke-linejoin="round"/>
<path d="M45.5293 14.9192C64.6741 25.9483 80.1426 52.7928 80.0733 74.7816C80.0039 96.7705 64.466 105.649 45.2518 94.6202C26.107 83.5217 10.6385 56.7466 10.7079 34.6884C10.7772 19.1505 18.5461 10.133 29.9221 10.133C34.6389 10.133 39.9107 11.6591 45.5293 14.9192ZM72.4431 70.3422C72.4431 53.209 60.3735 32.33 45.4599 23.7287C30.5464 15.058 18.4074 21.9945 18.338 39.1278C18.338 56.2611 30.4076 77.2094 45.3212 85.8107C49.6912 88.3079 53.7838 89.4871 57.4601 89.4871C66.2695 89.4871 72.3737 82.4812 72.4431 70.3422Z" fill="#001127" stroke="#01A5F4" stroke-width="2.08096" stroke-miterlimit="2" stroke-linejoin="round"/>
<path d="M23.9969 34.6346C23.9467 51.7764 36.0113 72.6885 50.9413 81.2846C57.6774 85.2056 63.8605 85.9093 68.6361 83.9488C63.9108 90.3833 55.2142 91.5395 45.3111 85.8088C30.3811 77.1625 18.3165 56.3007 18.3668 39.1588C18.417 29.7584 22.0364 23.4748 27.7671 21.0618C25.4045 24.3294 23.9969 28.9039 23.9969 34.6346Z" fill="#001127" stroke="#01A5F4" stroke-width="2.01078" stroke-miterlimit="2" stroke-linejoin="round"/>
<path d="M84.89 82.8663C84.9353 82.8663 85.0712 82.8663 85.0939 82.8663C85.1165 82.8663 85.2524 82.8889 85.2524 82.8889C85.2751 82.8889 85.2751 82.8889 85.2977 82.9116C85.3204 82.9116 85.4336 82.9342 85.4336 82.9569C85.4789 82.9569 85.5695 83.0022 85.5695 83.0022C85.5922 83.0249 85.6375 83.0475 85.6601 83.0702C85.6601 83.0702 85.6828 83.0702 85.6828 83.0928C85.7281 83.1155 85.7734 83.1381 85.796 83.1834L99.7037 97.3402C99.6584 97.2949 99.6358 97.2723 99.5905 97.2496L99.5678 97.227C99.5452 97.2043 99.4546 97.159 99.4319 97.159C99.4093 97.1364 99.3187 97.0911 99.296 97.0911C99.2734 97.0911 99.1148 97.0458 99.0922 97.0458C99.0695 97.0458 98.9563 97.0231 98.9563 97.0231C98.911 97.0231 98.7977 97.0231 98.775 97.0231C98.7524 97.0231 98.6165 97.0231 98.5712 97.0458C98.5485 97.0458 98.322 97.0684 98.2994 97.0684C98.2767 97.0911 98.0502 97.1364 98.0276 97.1364C97.9596 97.159 97.8237 97.2043 97.8011 97.2043C97.7558 97.227 97.5972 97.2723 97.5745 97.2723C97.5292 97.2949 97.3707 97.3629 97.3707 97.3629C97.3027 97.3855 97.1215 97.4761 97.0989 97.4761C97.0309 97.5214 96.963 97.5441 96.895 97.5894C96.8271 97.6121 96.6685 97.7027 96.6459 97.7027C96.5779 97.748 96.4193 97.8386 96.3967 97.8386C96.3514 97.8839 96.1928 97.9518 96.1928 97.9745C96.1249 98.0198 95.989 98.0877 95.989 98.0877C95.921 98.133 95.7625 98.2463 95.7625 98.2463C95.6945 98.2916 95.536 98.4048 95.536 98.4048C95.468 98.4501 95.3321 98.5634 95.3094 98.5634C95.2415 98.6087 95.1056 98.7219 95.1056 98.7219C95.0376 98.7899 94.8791 98.9032 94.8791 98.9032C94.8111 98.9485 94.6752 99.0617 94.6752 99.0617C94.6073 99.1297 94.4487 99.2429 94.4487 99.2656C94.3808 99.3109 94.2448 99.4468 94.2448 99.4468C94.1769 99.4921 93.9504 99.7186 93.9051 99.7639C93.8598 99.7865 93.6333 100.036 93.6106 100.058C93.5653 100.104 93.4521 100.217 93.4294 100.24C93.3615 100.285 93.2482 100.421 93.2482 100.443C93.1803 100.511 93.067 100.647 93.067 100.647C92.999 100.715 92.8858 100.851 92.8858 100.851C92.8178 100.919 92.7046 101.055 92.7046 101.055C92.6593 101.123 92.546 101.259 92.546 101.259C92.4781 101.327 92.3648 101.485 92.3648 101.485C92.3195 101.553 92.2063 101.689 92.2063 101.712C92.161 101.78 92.0704 101.916 92.0704 101.916C92.0251 101.984 91.7985 102.323 91.7985 102.346C91.7532 102.414 91.6853 102.527 91.6853 102.527C91.64 102.595 91.5494 102.776 91.5267 102.799C91.5041 102.844 91.3455 103.162 91.3455 103.184C91.3229 103.229 91.2776 103.365 91.2549 103.365C91.2323 103.433 91.2096 103.501 91.187 103.569C91.1643 103.615 91.0964 103.841 91.0964 103.864C91.0737 103.909 91.0058 104.158 91.0058 104.181C91.0058 104.203 90.9831 104.317 90.9831 104.339C90.9831 104.385 90.9605 104.498 90.9605 104.498C90.9605 104.543 90.9605 104.656 90.9605 104.656C90.9605 104.702 90.9831 104.86 90.9831 104.86C90.9831 104.883 91.0058 105.064 91.0284 105.087C91.0284 105.087 91.0964 105.245 91.0964 105.268C91.0964 105.268 91.187 105.404 91.187 105.427C91.2096 105.449 91.2323 105.472 91.2549 105.472L77.3472 91.3151C77.3246 91.2924 77.234 91.2018 77.234 91.1792C77.2113 91.1565 77.166 91.0433 77.1434 91.0206C77.1434 90.998 77.0981 90.8847 77.0981 90.8621C77.0981 90.8394 77.0981 90.8394 77.0981 90.8168C77.0754 90.8168 77.0528 90.6582 77.0528 90.6356C77.0528 90.5903 77.0528 90.545 77.0528 90.4997C77.0528 90.477 77.0528 90.4544 77.0528 90.4544C77.0528 90.4091 77.0528 90.3638 77.0528 90.3411C77.0528 90.3185 77.0528 90.3185 77.0528 90.3185C77.0528 90.3185 77.0754 90.2052 77.0754 90.1599C77.0754 90.1372 77.1434 89.8428 77.1434 89.8428C77.1434 89.8201 77.234 89.5483 77.234 89.5257C77.2566 89.4804 77.3699 89.1633 77.3699 89.1633C77.3925 89.118 77.5737 88.7329 77.5737 88.7102C77.5964 88.6876 77.7323 88.4384 77.7549 88.3705C77.7549 88.3705 78.0494 87.8948 78.072 87.8722C78.0947 87.8268 78.3212 87.4871 78.3439 87.4871C78.3665 87.4418 78.661 87.0567 78.6836 87.0341C78.7063 87.0114 79.046 86.581 79.0687 86.581C79.0913 86.5584 79.4085 86.1733 79.4311 86.1507C79.4538 86.128 79.8841 85.6977 79.8841 85.6977C79.9294 85.6524 80.3598 85.2446 80.3598 85.2446C80.3824 85.222 80.7449 84.9275 80.7675 84.9049C80.7675 84.9049 81.2205 84.5425 81.2205 84.5198C81.2658 84.4972 81.6736 84.2027 81.6962 84.2027C81.7189 84.1574 82.1039 83.9309 82.1039 83.9082C82.1492 83.8856 82.3757 83.7497 82.3984 83.7497C82.421 83.727 82.7835 83.5232 82.7835 83.5232C82.8288 83.5005 83.0553 83.3873 83.1006 83.3646C83.1232 83.342 83.4856 83.1834 83.5083 83.1834C83.5309 83.1608 83.7574 83.0702 83.7801 83.0702C83.8254 83.0702 83.9387 83.0249 83.9387 83.0249C83.984 83.0022 84.3011 82.9342 84.3011 82.9116C84.3464 82.9116 84.6182 82.8663 84.6182 82.8663C84.6408 82.8663 84.6635 82.8663 84.6635 82.8663C84.7088 82.8663 84.89 82.8663 84.89 82.8663Z" fill="#001127" stroke="#01A5F4" stroke-width="2.03859" stroke-miterlimit="2" stroke-linejoin="round"/>
<path d="M96.8876 97.581C94.5193 98.7668 91.9688 101.443 91.1907 103.557C90.4126 105.672 91.7016 106.425 94.0698 105.239C96.4382 104.054 98.989 101.378 99.7672 99.2632C100.545 97.1484 99.256 96.3952 96.8876 97.581Z" fill="#001127" stroke="#01A5F4" stroke-width="2.00018" stroke-miterlimit="2" stroke-linejoin="round"/>
<path d="M94.5414 90.4426C94.5862 90.4426 94.8547 90.4874 94.8547 90.4874C94.8995 90.4874 94.9442 90.4874 94.989 90.4874C94.989 90.4874 95.2128 90.5322 95.2128 90.5769C95.2575 90.5769 95.4813 90.6664 95.4813 90.6664C95.4813 90.7112 95.6604 90.8007 95.6604 90.8007C95.7051 90.8455 95.7051 90.8455 95.7499 90.8902L128.916 125.309C128.916 125.309 128.782 125.175 128.737 125.175L128.603 125.086C128.558 125.086 128.334 124.996 128.334 124.951C128.289 124.951 128.065 124.907 128.065 124.907C127.976 124.907 127.618 124.907 127.618 124.907C127.573 124.907 127.126 124.951 127.126 124.951C127.081 124.951 126.678 125.041 126.633 125.041C126.588 125.086 126.007 125.265 126.007 125.265C125.962 125.309 125.559 125.444 125.559 125.444C125.469 125.488 124.888 125.802 124.888 125.802C124.798 125.847 124.306 126.115 124.261 126.16C124.171 126.205 123.679 126.518 123.679 126.518C123.59 126.563 123.097 126.921 123.097 126.921C123.008 127.01 122.56 127.368 122.515 127.368C122.426 127.458 121.978 127.861 121.978 127.861C121.889 127.905 121.396 128.353 121.396 128.353C121.352 128.398 120.859 128.845 120.859 128.89C120.77 128.98 120.367 129.382 120.367 129.427C120.278 129.472 119.875 129.964 119.875 129.964C119.83 130.054 119.427 130.501 119.427 130.501C119.338 130.591 119.024 131.083 118.98 131.083C118.935 131.173 118.621 131.62 118.621 131.665C118.577 131.71 118.308 132.202 118.308 132.202C118.219 132.292 117.995 132.739 117.95 132.784C117.95 132.829 117.771 133.276 117.726 133.276C117.726 133.366 117.502 133.903 117.502 133.948C117.502 133.993 117.368 134.53 117.368 134.574C117.368 134.619 117.368 134.888 117.368 134.932C117.323 134.977 117.368 135.335 117.368 135.38C117.368 135.38 117.413 135.604 117.458 135.604C117.458 135.649 117.502 135.783 117.502 135.783C117.547 135.828 117.637 136.007 117.637 136.007C117.682 136.007 117.682 136.051 117.726 136.096L84.5155 101.632C84.5155 101.632 84.426 101.498 84.3812 101.453L84.2917 101.274L84.2022 101.05L84.1574 100.648C84.1574 100.603 84.1574 100.334 84.1574 100.334C84.1574 100.245 84.2022 100.2 84.2022 100.11L84.3365 99.4838L84.4708 99.081C84.5155 98.9915 84.8288 98.2306 84.8736 98.1858C84.8736 98.1858 85.0526 97.8278 85.0974 97.7383L85.5002 97.1116C85.545 97.0221 86.0373 96.306 86.0373 96.306C86.0821 96.2612 86.7534 95.4556 86.7534 95.4556C86.7534 95.4108 87.4696 94.6499 87.4696 94.6499C87.5143 94.6052 88.32 93.8443 88.32 93.7995C88.3647 93.7548 89.2152 93.0386 89.2599 93.0386C89.2599 92.9939 89.976 92.4568 90.0208 92.412C90.0656 92.3673 90.5579 92.0092 90.6027 92.0092C90.6474 91.9644 91.1845 91.6511 91.2293 91.6064C91.274 91.6064 91.9902 91.2035 91.9902 91.2035C92.0349 91.1588 92.6168 90.8902 92.6168 90.8902C92.7063 90.8902 93.0644 90.7559 93.0644 90.7559C93.1539 90.7112 93.512 90.6217 93.512 90.6217C93.5567 90.5769 93.9595 90.4874 93.9595 90.4874C94.0491 90.4874 94.0938 90.4874 94.1833 90.4874C94.2281 90.4874 94.5414 90.4426 94.5414 90.4426Z" fill="#001127" stroke="#01A5F4" stroke-width="1.79034" stroke-miterlimit="2" stroke-linejoin="round"/>
<path d="M125.18 125.632C122.046 127.201 118.67 130.742 117.64 133.541C116.611 136.34 118.317 137.337 121.451 135.767C124.585 134.198 127.961 130.657 128.991 127.858C130.021 125.059 128.315 124.063 125.18 125.632Z" fill="#001127" stroke="#01A5F4" stroke-width="2.00018" stroke-miterlimit="2" stroke-linejoin="round"/>
</g>
</g>
<defs>
<clipPath id="clip0_3645_489">
<rect width="140" height="140" fill="white"/>
</clipPath>
<clipPath id="clip1_3645_489">
<rect width="140" height="140" fill="white"/>
</clipPath>
</defs>
</svg>
