<svg width="140" height="140" viewBox="0 0 140 140" fill="none" xmlns="http://www.w3.org/2000/svg">
<g clip-path="url(#clip0_3645_527)">
<path fill-rule="evenodd" clip-rule="evenodd" d="M68.6736 68.4689C64.1993 71.1104 58.151 71.0027 51.4772 67.5203C37.7309 60.2967 26.572 41.4182 26.572 25.3323C26.572 16.3837 30.0221 10.1952 35.4451 7.68317C35.8117 7.46754 36.1891 7.27342 36.5772 7.09013C36.9438 6.8745 37.3212 6.66959 37.7201 6.48631C38.0867 6.27068 38.4641 6.07656 38.8522 5.89327C39.2188 5.67765 39.5959 5.48353 39.9949 5.30024C40.3614 5.08461 40.7388 4.87997 41.127 4.70747C41.4935 4.48106 41.8817 4.28693 42.2699 4.10365C46.7442 1.47297 52.7817 1.58067 59.4446 5.06308C73.2125 12.2759 84.3714 31.1543 84.3714 47.2403C84.3714 56.1997 80.9106 62.4097 75.4659 64.911C75.0994 65.1158 74.7328 65.3099 74.3554 65.4824C73.9889 65.6981 73.6115 65.903 73.2233 66.0755C72.8568 66.3019 72.4686 66.496 72.0804 66.6793C71.7139 66.8949 71.3367 67.0891 70.9486 67.2723C70.582 67.488 70.1938 67.6926 69.8057 67.8651C69.4391 68.0915 69.0617 68.2856 68.6736 68.4689ZM88.3497 134.775C81.2663 138.969 67.4122 137.104 51.4772 128.759C28.3511 116.64 9.60205 95.5089 9.60205 81.5038C9.60205 76.6629 11.8553 73.3099 15.769 71.5094C16.1248 71.2937 16.513 71.0888 16.9011 70.9055C17.2677 70.7007 17.6451 70.4958 18.044 70.3125C18.3998 70.0969 18.788 69.9028 19.1761 69.7195C19.5427 69.5039 19.9198 69.31 20.3187 69.1267C20.6745 68.9111 21.0519 68.7062 21.4508 68.5229C21.8174 68.3073 22.1948 68.1131 22.5937 67.9299C29.6771 63.7251 43.5204 65.6011 59.4446 73.9352C82.5816 86.0536 101.331 107.207 101.331 121.19C101.331 126.042 99.0773 129.395 95.1637 131.195C94.8079 131.411 94.4305 131.605 94.0315 131.788C93.6758 132.004 93.2984 132.198 92.8994 132.381C92.5329 132.597 92.1555 132.802 91.7565 132.985C91.4008 133.201 91.0236 133.395 90.6247 133.578C90.2581 133.794 89.8807 133.988 89.4926 134.171C89.126 134.387 88.7486 134.592 88.3497 134.775Z" fill="#001127" stroke="#01A5F4" stroke-width="2.00535" stroke-miterlimit="2" stroke-linejoin="round"/>
<path fill-rule="evenodd" clip-rule="evenodd" d="M75.2749 52.0145C75.2749 68.0897 64.1163 75.3027 50.3376 68.1115C36.5913 60.8879 25.4324 42.0202 25.4324 25.9235C25.4324 9.83751 36.5913 2.63557 50.3376 9.83759C64.1163 17.0396 75.2749 35.9178 75.2749 52.0145ZM92.2341 125.965C92.2341 139.937 73.4854 141.468 50.3376 129.361C27.2114 117.242 8.4624 96.1001 8.4624 82.1058C8.4624 68.1222 27.2114 66.5911 50.3376 78.7095C73.4854 90.8278 92.2341 111.981 92.2341 125.965Z" fill="#001127" stroke="#01A5F4" stroke-width="2.00535" stroke-miterlimit="2" stroke-linejoin="round"/>
<path fill-rule="evenodd" clip-rule="evenodd" d="M105.932 68.4753C98.7992 64.3125 92.3276 63.9272 87.6612 66.6694L78.6283 71.9688C83.2946 69.2307 82.191 84.542 89.3302 88.7062C103.506 96.9699 109.63 103.274 109.596 119.728C109.562 127.903 119.61 132.467 115.005 135.174L124.031 129.869C128.65 127.169 131.504 121.415 131.525 113.236C131.572 96.7849 120.114 76.7425 105.932 68.4753Z" fill="#001127" stroke="#01A5F4" stroke-width="1.99897" stroke-miterlimit="2" stroke-linejoin="round"/>
<path d="M96.8986 73.7802C82.7225 65.5068 71.1826 72.1436 71.1349 88.594C71.0872 105.052 82.5522 125.099 96.7283 133.366C110.911 141.635 122.444 134.995 122.492 118.54C122.533 102.086 111.075 82.044 96.8986 73.7802Z" fill="#001127" stroke="#01A5F4" stroke-width="1.99897" stroke-miterlimit="2" stroke-linejoin="round"/>
<path fill-rule="evenodd" clip-rule="evenodd" d="M87.5604 98.9279C87.0737 97.8715 86.3194 97.809 85.4669 97.3786C83.9987 96.6372 82.3408 97.7819 82.3408 99.6883C82.3408 100.487 82.5506 101.329 82.9015 102.09C82.997 102.297 83.1019 102.498 83.2161 102.691L89.8462 115.98C90.3329 116.994 91.0724 117.857 91.898 118.273C92.6698 118.665 93.3663 118.587 93.853 118.149L93.8543 118.146L93.8638 118.138L110.133 104.731C110.231 104.661 111.199 103.622 111.283 103.526C111.638 103.118 112.326 101.974 112.326 101.17C112.326 99.2633 110.985 97.0948 109.517 96.3534C108.767 95.9745 107.405 96.3928 106.921 96.7988C106.89 96.8259 106.858 96.8544 106.828 96.8843L94.0224 107.779L92.9158 108.714L92.3686 107.74L87.5604 98.9279Z" fill="#001127" stroke="#01A5F4" stroke-width="1.99978" stroke-miterlimit="2" stroke-linejoin="round"/>
</g>
<defs>
<clipPath id="clip0_3645_527">
<rect width="140" height="140" fill="white"/>
</clipPath>
</defs>
</svg>
