<svg width="140" height="140" viewBox="0 0 140 140" fill="none" xmlns="http://www.w3.org/2000/svg">
<g clip-path="url(#clip0_3649_543)">
<path fill-rule="evenodd" clip-rule="evenodd" d="M83.5923 135.262C83.3791 135.422 83.148 135.564 82.917 135.698C80.1001 137.324 76.288 136.95 72.307 134.649L30.1687 110.319C26.1877 108.017 22.3667 103.992 19.5587 99.1219C16.7417 94.2523 15.1689 88.9298 15.1689 84.3357V35.6748C15.1689 31.0806 16.7417 27.5797 19.5587 25.9625C19.7897 25.8292 20.0297 25.7046 20.2785 25.598C20.4918 25.438 20.7228 25.287 20.9538 25.1537C21.1849 25.0204 21.4246 24.8958 21.6735 24.7892C21.8867 24.6292 22.1178 24.4873 22.3488 24.354C22.5799 24.2118 22.8198 24.0962 23.0686 23.9895C23.2819 23.8296 23.5041 23.6785 23.744 23.5452C23.975 23.4119 24.215 23.2874 24.4638 23.1807C24.6771 23.0208 24.8993 22.8697 25.1392 22.7364C25.3702 22.6031 25.6102 22.479 25.859 22.3724C26.0723 22.2125 26.2944 22.0701 26.5344 21.9368C26.7654 21.8035 27.0052 21.6789 27.254 21.5723C27.4673 21.4123 27.6894 21.2613 27.9293 21.128C28.1604 20.9947 28.4004 20.8706 28.6492 20.764C28.8624 20.604 29.0846 20.4618 29.3156 20.3196C32.1325 18.7024 35.9447 19.0755 39.9256 21.377L44.3156 23.9097V18.8444C44.3156 14.2502 45.8884 10.7578 48.7053 9.13166C48.9363 8.99836 49.1763 8.87425 49.4251 8.76762C49.6384 8.60767 49.8692 8.46549 50.1003 8.32331C50.3313 8.19002 50.5713 8.07436 50.8201 7.95884C51.0334 7.80777 51.2644 7.65693 51.4954 7.52364C51.7265 7.39035 51.9665 7.2658 52.2153 7.15917C52.4285 6.99922 52.6596 6.84815 52.8906 6.71486C53.1217 6.58157 53.3616 6.45702 53.6105 6.35039C53.8237 6.19044 54.0548 6.04848 54.2858 5.91519C54.5169 5.77301 54.7566 5.65735 55.0054 5.55072C55.2187 5.39077 55.4409 5.2397 55.6808 5.10641C55.9118 4.97312 56.1518 4.84857 56.4006 4.74194C56.6139 4.58199 56.836 4.43092 57.076 4.29763C57.307 4.16434 57.547 4.04023 57.7958 3.93359C58.0091 3.77364 58.2312 3.63125 58.4712 3.49796C61.2792 1.87179 65.1002 2.24517 69.0723 4.54669L111.219 28.8769C115.2 31.1784 119.013 35.204 121.829 40.0736C124.638 44.9521 126.219 50.2662 126.219 54.8603V103.53C126.219 108.124 124.638 111.616 121.829 113.234C121.598 113.376 121.358 113.491 121.11 113.598C120.887 113.758 120.665 113.909 120.434 114.042C120.194 114.175 119.954 114.3 119.714 114.406C119.492 114.566 119.27 114.708 119.039 114.851C118.808 114.984 118.568 115.1 118.319 115.215C118.106 115.375 117.875 115.517 117.644 115.65C117.413 115.784 117.173 115.908 116.924 116.015C116.711 116.175 116.48 116.326 116.249 116.459C116.018 116.592 115.778 116.717 115.529 116.824C115.316 116.984 115.085 117.125 114.854 117.259C114.623 117.401 114.383 117.517 114.134 117.623C113.921 117.783 113.69 117.934 113.459 118.068C113.228 118.201 112.988 118.325 112.739 118.432C112.526 118.592 112.295 118.743 112.064 118.876C109.256 120.502 105.434 120.12 101.462 117.818L97.0726 115.295V120.351C97.0726 124.945 95.4909 128.438 92.6829 130.064C92.4429 130.197 92.2029 130.321 91.963 130.428C91.7409 130.588 91.5187 130.739 91.2877 130.872C91.0566 131.006 90.8078 131.13 90.5678 131.237C90.3457 131.397 90.1235 131.539 89.8925 131.672C89.6525 131.815 89.4217 131.93 89.1729 132.036C88.9507 132.196 88.7285 132.347 88.4975 132.481C88.2665 132.614 88.0176 132.739 87.7777 132.845C87.5555 133.005 87.3334 133.147 87.1023 133.289C86.8713 133.423 86.6313 133.538 86.3825 133.654C86.1692 133.814 85.9382 133.956 85.7071 134.089C85.4761 134.222 85.2361 134.347 84.9873 134.454C84.7652 134.614 84.543 134.765 84.312 134.898C84.0809 135.031 83.8411 135.156 83.5923 135.262ZM38.7793 47.9822V86.6991C38.7793 87.0457 38.9038 87.4544 39.1171 87.8277C39.3304 88.2009 39.6235 88.5121 39.9256 88.6898L73.462 108.044V101.655L59.3064 93.4883C55.3343 91.1956 51.5133 87.1612 48.7053 82.2916C45.8884 77.422 44.3156 72.0995 44.3156 67.5053V51.1722L38.7793 47.9822ZM67.9259 64.8039V69.8687C67.9259 70.2242 68.0504 70.633 68.2637 70.9973C68.477 71.3705 68.7701 71.6817 69.0723 71.8594L73.462 74.3921V69.3268C73.462 68.9714 73.3377 68.5715 73.1244 68.1982C72.9111 67.825 72.618 67.5138 72.307 67.3361L67.9259 64.8039ZM67.9259 31.1518V37.5409L82.0728 45.7073C86.0538 47.9999 89.8659 52.0343 92.6829 56.9039C95.4909 61.7736 97.0726 67.0965 97.0726 71.6907V88.0233L102.609 91.2133V52.4964C102.609 52.1499 102.484 51.7411 102.271 51.3679C102.058 50.9947 101.764 50.6835 101.462 50.5057L67.9259 31.1518Z" fill="#001127" stroke="#01A5F4" stroke-width="1.99939" stroke-miterlimit="2" stroke-linejoin="round"/>
<path fill-rule="evenodd" clip-rule="evenodd" d="M85.9182 110.459V126.792C85.9182 131.386 84.3406 134.883 81.524 136.5C78.7151 138.131 74.898 137.748 70.9194 135.451L28.7703 111.117C24.7916 108.82 20.9825 104.799 18.1659 99.9201C15.3492 95.0505 13.7715 89.7318 13.7715 85.1376L13.7715 36.4772C13.7715 31.883 15.3492 28.3864 18.1659 26.7602C20.9825 25.1429 24.7916 25.5116 28.7703 27.8087L42.9227 35.9796V19.6469C42.9227 15.0528 44.5003 11.5558 47.3092 9.93407C50.1258 8.3079 53.9428 8.69006 57.9215 10.9871L100.063 35.3175C104.041 37.6146 107.859 41.64 110.675 46.5185C113.484 51.3837 115.062 56.7023 115.062 61.2965V109.966C115.062 114.56 113.484 118.048 110.675 119.678C107.859 121.305 104.041 120.922 100.063 118.625L85.9182 110.459ZM42.9227 51.9747L28.7703 43.8038C28.4702 43.6305 28.1779 43.6039 27.9624 43.7283C27.7469 43.8527 27.6236 44.1193 27.6236 44.4747L27.6236 93.1352C27.6236 93.4907 27.7469 93.8996 27.9624 94.2728C28.1779 94.646 28.4702 94.9482 28.7703 95.1215L70.9194 119.456C71.2272 119.634 71.512 119.665 71.7274 119.541C71.9429 119.416 72.066 119.15 72.066 118.794V102.461L57.9215 94.295C53.9428 91.9979 50.1258 87.9725 47.3092 83.094C44.5003 78.2199 42.9227 72.9107 42.9227 68.3165V51.9747ZM85.9182 94.4638L100.063 102.63C100.371 102.808 100.663 102.835 100.879 102.71C101.094 102.586 101.209 102.315 101.209 101.968V53.2989C101.209 52.9434 101.094 52.5391 100.879 52.1659C100.663 51.8016 100.371 51.4904 100.063 51.3126L57.9215 26.9823C57.6137 26.8045 57.3212 26.778 57.1057 26.8935C56.8902 27.0179 56.7748 27.289 56.7748 27.6445V43.9772L70.9194 52.1435C74.898 54.4406 78.7151 58.4749 81.524 63.3401C84.3406 68.2186 85.9182 73.537 85.9182 78.1311V94.4638ZM72.066 86.4663V70.1336C72.066 69.7781 71.9429 69.3693 71.7274 68.9961C71.512 68.6229 71.2272 68.3164 70.9194 68.1386L56.7748 59.9723V76.3141C56.7748 76.6606 56.8902 77.0648 57.1057 77.438C57.3212 77.8112 57.6137 78.1222 57.9215 78.2999L72.066 86.4663Z" fill="#001127" stroke="#01A5F4" stroke-width="1.63506" stroke-miterlimit="2" stroke-linejoin="round"/>
</g>
<defs>
<clipPath id="clip0_3649_543">
<rect width="140" height="140" fill="white"/>
</clipPath>
</defs>
</svg>
